<svg width="337" height="80" viewBox="0 0 337 80" fill="none" xmlns="http://www.w3.org/2000/svg">
<path d="M27.88 8.48535V17.8149C18.4694 21.142 12.1627 30.0219 12.1211 40.0033C12.1229 50.0193 18.4369 58.9465 27.88 62.2852V71.5213H162.133H163.801H276.542H302.605H309.117V62.1916C318.528 58.8645 324.835 49.9847 324.876 40.0033C324.875 29.9873 318.561 21.0602 309.117 17.7215V8.48535H302.605H276.542H163.801H162.133H27.88Z" fill="url(#paint0_linear_1247_7604)"/>
<path d="M27.88 8.48535V17.8149C18.4694 21.142 12.1627 30.0219 12.1211 40.0033C12.1229 50.0193 18.4369 58.9465 27.88 62.2852V71.5213H162.133H163.801H276.542H302.605H309.117V62.1916C318.528 58.8645 324.835 49.9847 324.876 40.0033C324.875 29.9873 318.561 21.0602 309.117 17.7215V8.48535H302.605H276.542H163.801H162.133H27.88Z" fill="url(#paint1_linear_1247_7604)"/>
<mask id="mask0_1247_7604" style="mask-type:alpha" maskUnits="userSpaceOnUse" x="12" y="8" width="313" height="64">
<path d="M27.88 8.48535V17.8149C18.4694 21.142 12.1627 30.0219 12.1211 40.0033C12.1229 50.0193 18.4369 58.9465 27.88 62.2852V71.5213H162.133H163.801H276.542H302.605H309.117V62.1916C318.528 58.8645 324.835 49.9847 324.876 40.0033C324.875 29.9873 318.561 21.0602 309.117 17.7215V8.48535H302.605H276.542H163.801H162.133H27.88Z" fill="#40434F"/>
</mask>
<g mask="url(#mask0_1247_7604)">
<mask id="mask1_1247_7604" style="mask-type:alpha" maskUnits="userSpaceOnUse" x="-28" y="-26" width="398" height="389">
<path d="M369.729 362.456L-27.8828 362.456L-27.8828 -25.458L369.729 -25.458L369.729 362.456ZM170.923 148.234C156.879 148.234 145.494 159.641 145.494 173.71C145.494 187.779 156.879 199.185 170.923 199.185C184.967 199.185 196.351 187.779 196.352 173.71C196.352 159.641 184.967 148.234 170.923 148.234Z" fill="#C36B6B"/>
</mask>
<g mask="url(#mask1_1247_7604)">
<path opacity="0.12" fill-rule="evenodd" clip-rule="evenodd" d="M243.391 36.1021C262.031 26.7755 298.482 30.2267 319.669 40.0205C300.246 67.8825 274.832 90.5197 228.012 83.2051C226.768 79.95 226.722 75.7241 227.45 70.8738C246.248 74.766 268.282 72.405 278.143 63.1809C279.398 62.0064 280.543 60.3671 281.186 59.0371C288.948 42.9507 263.329 41.7419 253.179 45.6824C250.508 42.012 246.849 39.138 243.391 36.1012M106.788 31.8479C111.111 11.4742 136.537 -14.8424 157.413 -25.2845C167.108 7.2566 168.979 41.2209 134.064 73.2286C130.741 72.1709 127.405 69.5718 124.063 65.9795C138.83 53.7238 150.72 35.0409 149.65 21.59C149.513 19.8773 148.944 17.9613 148.304 16.6301C140.554 0.537928 123.634 19.7933 120.392 30.1772C115.853 29.9754 111.324 31.0406 106.791 31.8482M18.2914 135.889C5.04146 119.81 0.298809 83.5426 5.14218 60.7284C36.6555 73.4459 64.4023 93.1604 67.6835 140.386C64.7836 142.323 60.67 143.307 55.7744 143.678C55.3898 124.503 48.1826 103.568 36.9868 96.0181C35.5612 95.057 33.7068 94.3069 32.2657 93.9769C14.8398 89.9967 19.3604 115.216 25.4646 124.224C22.4771 127.643 20.4863 131.845 18.2921 135.889M44.5391 269.88C23.6944 270.203 -7.64663 251.295 -22.4823 233.287C7.11865 216.604 39.8479 207.224 78.8531 234.107C78.5603 237.579 76.7661 241.406 74.0041 245.461C58.7576 233.806 37.8797 226.382 24.9904 230.419C23.3493 230.934 21.6061 231.914 20.4494 232.834C6.46945 243.963 29.0256 256.156 39.8814 257.005C40.6943 261.47 42.7417 265.645 44.5386 269.88M165.767 332.923C153.024 349.406 118.685 362.094 95.341 362.456C100.74 328.935 113.806 297.524 159.164 283.818C161.699 286.212 163.575 289.999 165.026 294.685C146.399 299.326 127.572 311.004 122.696 323.589C122.075 325.191 121.756 327.164 121.755 328.641C121.748 346.499 145.354 336.484 152.787 328.534C156.789 330.683 161.332 331.687 165.767 332.924M290.689 277.547C295.644 297.777 284.165 332.509 269.892 350.964C247.024 325.847 230.588 296.058 248.143 252.085C251.596 251.598 255.73 252.494 260.302 254.281C252.321 271.724 249.722 293.71 256.529 305.365C257.396 306.849 258.741 308.328 259.896 309.25C273.868 320.389 280.748 295.708 279.161 284.945C283.338 283.16 286.956 280.237 290.689 277.544M325.236 145.448C344.157 154.191 364.183 184.811 369.729 207.468C335.813 209.669 302.251 203.933 278.785 162.807C280.557 159.805 283.836 157.135 288.086 154.679C296.76 171.788 312.346 187.526 325.712 189.475C327.414 189.723 329.411 189.595 330.852 189.268C348.281 185.3 333.255 164.538 323.843 159.068C325.049 154.693 325.018 150.045 325.238 145.45M322.442 133.62C320.188 129.61 318.135 125.438 315.096 122.064C321.065 112.966 325.207 87.6804 307.843 91.9208C306.407 92.2723 304.564 93.0499 303.153 94.0323C292.071 101.749 285.178 122.789 285.081 141.969C280.181 141.671 276.052 140.748 273.124 138.855C275.697 91.5855 303.147 71.4576 334.464 58.271C339.648 81.0105 335.449 117.345 322.442 133.621M232.394 30.9134C227.849 30.1736 223.304 29.1762 218.769 29.4459C215.37 19.1114 198.165 0.112313 190.656 16.3174C190.036 17.6581 189.496 19.5824 189.385 21.297C188.514 34.7632 200.683 53.266 215.632 65.2986C212.343 68.9406 209.047 71.5891 205.74 72.6964C170.351 41.2147 171.712 7.22617 180.917 -25.458C201.946 -15.3296 227.764 10.6059 232.392 30.9107M95.869 37.2049C92.4567 40.2932 88.8421 43.2212 86.2259 46.9314C76.0186 43.1429 50.4218 44.7346 58.4233 60.703C59.0858 62.0233 60.2549 63.6454 61.5275 64.8008C71.5239 73.8766 93.5918 75.908 112.33 71.7353C113.13 76.5743 113.148 80.8004 111.952 84.0736C65.2489 92.0858 39.497 69.8309 19.6595 42.2638C40.6976 32.1542 77.0922 28.1587 95.8691 37.2059M15.6745 147.761C15.9638 152.352 16.0019 157.001 17.2741 161.357C7.94509 166.967 -6.76875 187.954 10.7176 191.658C12.164 191.964 14.1621 192.062 15.8602 191.789C29.1955 189.64 44.5438 173.671 52.9627 156.433C57.2486 158.825 60.5669 161.446 62.3834 164.421C39.5346 205.893 6.06229 212.132 -27.8828 210.437C-22.6776 187.702 -3.11383 156.786 15.6753 147.76M52.1977 279.326C55.9708 281.962 59.6328 284.831 63.8355 286.553C62.4095 297.337 69.6588 321.914 83.4618 310.567C84.6029 309.628 85.9256 308.128 86.7702 306.632C93.4029 294.876 90.4749 272.932 82.2331 255.611C86.7777 253.755 90.8976 252.798 94.3584 253.234C112.57 296.937 96.5815 326.969 74.092 352.426C59.5447 334.185 47.5466 299.628 52.1977 279.326ZM177.936 332.831C182.351 331.528 186.879 330.456 190.848 328.248C198.399 336.086 222.153 345.747 221.879 327.891C221.855 326.414 221.506 324.446 220.862 322.854C215.797 310.344 196.797 298.948 178.102 294.587C179.483 289.88 181.302 286.065 183.801 283.634C229.359 296.659 242.894 327.871 248.796 361.309C225.45 361.298 190.924 349.123 177.935 332.834M298.205 267.987C299.938 263.725 301.923 259.52 302.669 255.044C313.511 254.033 335.881 241.503 321.737 230.586C320.567 229.683 318.809 228.729 317.16 228.239C304.212 224.395 283.448 232.13 268.377 244.011C265.555 239.998 263.703 236.199 263.359 232.731C301.958 205.269 334.824 214.158 364.67 230.397C350.106 248.624 319.051 268.001 298.204 267.986M231.923 46.1355C238.878 51.0645 244.259 57.3111 246.539 62.8381C247.343 64.7884 247.672 67.8541 248.091 69.3233C252.829 69.4878 256.559 68.4098 260.552 67.6566C257.092 53.8588 249.034 42.9465 237.117 35.1494C223.521 30.9057 209.965 31.6184 197.1 37.7118C199.054 41.2712 200.589 44.8337 203.725 48.3853C205.127 47.7759 207.707 46.0829 209.725 45.4643C215.447 43.7132 223.694 43.8976 231.922 46.1344L231.923 46.1355ZM310.232 142.743C310.711 151.249 309.177 159.346 306.273 164.573C305.248 166.416 303.053 168.585 302.165 169.829C304.991 173.632 308.159 175.872 311.238 178.522C319.88 167.217 323.396 154.119 322.067 139.951C316.911 126.686 307.902 116.543 295.112 110.292C293.544 114.037 291.713 117.458 290.889 122.122C292.241 122.837 295.174 123.796 296.916 124.987C301.854 128.364 306.852 134.921 310.232 142.742L310.232 142.743ZM283.451 264.141C277.093 269.818 269.8 273.669 263.898 274.659C261.816 275.008 258.751 274.647 257.224 274.728C256.009 279.306 256.231 283.178 256.078 287.235C270.313 286.935 282.757 281.516 293.015 271.644C300.182 259.347 302.503 245.986 299.419 232.099C295.511 233.21 291.693 233.912 287.529 236.176C287.812 237.678 288.89 240.567 289.044 242.67C289.48 248.633 287.465 256.624 283.451 264.14L283.451 264.141ZM171.745 318.914C163.338 317.488 155.777 314.192 151.322 310.201C149.751 308.792 148.123 306.173 147.107 305.031C142.767 306.936 139.875 309.524 136.605 311.933C145.714 322.865 157.714 329.204 171.836 331.063C185.929 328.993 197.833 322.476 206.776 311.409C203.47 309.049 200.54 306.504 196.171 304.664C195.173 305.821 193.584 308.464 192.034 309.896C187.639 313.954 180.129 317.363 171.744 318.914L171.745 318.914ZM59.2317 265.816C55.1057 258.36 52.9712 250.4 53.3176 244.432C53.4405 242.327 54.4753 239.422 54.7355 237.916C50.5381 235.715 46.7099 235.069 42.7852 234.017C39.9098 247.948 42.4304 261.273 49.7807 273.461C60.1873 283.177 72.7096 288.411 86.9487 288.497C86.7345 284.444 86.8986 280.569 85.6155 276.009C84.0872 275.951 81.0279 276.358 78.9408 276.04C73.0252 275.138 65.6751 271.397 59.2328 265.815L59.2317 265.816ZM30.6355 144.833C33.898 136.962 38.7967 130.332 43.6835 126.881C45.4079 125.664 48.3266 124.661 49.667 123.926C48.7732 119.275 46.8914 115.882 45.2678 112.161C32.5724 118.601 23.7159 128.878 18.7587 142.217C17.6427 156.403 21.3545 169.446 30.1639 180.621C33.2029 177.926 36.338 175.638 39.1061 171.793C38.1993 170.563 35.973 168.427 34.9204 166.599C31.9385 161.416 30.2831 153.343 30.635 144.831L30.6355 144.833ZM107.491 47.0665C115.685 44.707 123.928 44.3994 129.675 46.0648C131.703 46.653 134.307 48.3073 135.719 48.8956C138.802 45.2974 140.283 41.7126 142.183 38.1244C129.228 32.224 115.665 31.7141 102.132 36.1604C90.3341 44.1337 82.4402 55.1653 79.1874 69.0143C83.191 69.7077 86.9362 70.7298 91.6711 70.4946C92.0686 69.0192 92.352 65.949 93.1263 63.9869C95.3233 58.4264 100.609 52.1 107.49 47.0675L107.491 47.0665ZM364.451 218.326C346.01 208.483 326.781 202.211 305.477 205.342C323.49 217.129 343.575 219.513 364.451 218.326ZM258.107 353.608C254.312 333.068 247.232 314.14 231.498 299.453C233.504 320.87 244.162 338.046 258.107 353.608ZM85.9276 354.895C99.6367 339.124 110.036 321.794 111.721 300.347C96.2099 315.267 89.4139 334.299 85.9276 354.895ZM-22.4312 221.217C-1.54139 222.092 18.5058 219.408 36.3411 207.354C14.9933 204.542 -4.13964 211.1 -22.4312 221.217ZM14.6276 53.236C26.9674 70.0974 41.5687 84.0825 62.1221 90.4952C51.013 72.0683 33.9506 61.2149 14.6276 53.236ZM169.197 -22.5551C163.695 -2.40418 161.853 17.7201 169.649 37.7704C177.144 17.6047 175 -2.48783 169.197 -22.5551ZM324.885 50.9158C305.684 59.1823 288.788 70.2902 277.956 88.8805C298.411 82.1611 312.799 67.959 324.885 50.9158ZM267.569 152.806C262.115 160.014 258.93 168.382 257.093 174.898C260.876 174.762 264.195 176.728 268.055 176.239C270.605 161.917 291.755 143.679 306.856 151.039C307.21 148.558 307.441 146.048 307.251 143.447C306.256 141.035 304.926 138.894 303.498 136.832C293.288 150.164 266.204 143.303 257.511 131.632C253.839 132.92 251.751 136.162 248.307 137.731C252.868 142.737 259.463 148.799 267.569 152.807L267.569 152.806ZM248.977 237.083C239.936 237.317 231.4 240.047 225.155 242.674C227.62 245.544 228.151 249.362 230.941 252.072C243.74 245.134 271.201 250.281 274.856 266.666C277.018 265.395 279.126 264.011 281.044 262.24C282.311 259.959 283.158 257.585 283.881 255.185C267.081 255.522 255.564 230.092 259.277 216.025C255.98 213.961 252.141 214.35 248.765 212.639C247.691 219.322 247.059 228.253 248.976 237.082L248.977 237.083ZM171.428 275.108C165.608 268.192 158.149 263.228 152.2 259.989C151.49 263.703 148.833 266.499 148.451 270.367C161.862 276.038 174.956 300.695 164.411 313.765C166.754 314.662 169.151 315.445 171.733 315.839C174.308 315.406 176.694 314.588 179.023 313.656C168.284 300.745 181.007 275.895 194.33 270.023C193.891 266.16 191.192 263.405 190.427 259.701C184.527 263.03 177.144 268.104 171.428 275.107V275.108ZM93.3178 238.247C95.1018 229.389 94.3363 220.469 93.1622 213.801C89.8128 215.563 85.9686 215.23 82.7027 217.344C86.6261 231.354 75.4919 256.953 58.689 256.868C59.4479 259.257 60.3301 261.618 61.6314 263.879C63.5754 265.621 65.7035 266.974 67.885 268.212C71.2943 251.775 98.6752 246.218 111.577 252.964C114.325 250.213 114.799 246.387 117.221 243.481C110.937 240.947 102.362 238.345 93.318 238.246L93.3178 238.247ZM73.4655 154.256C81.5102 150.127 88.014 143.967 92.4997 138.893C89.0324 137.376 86.8957 134.166 83.2051 132.933C74.6874 144.732 47.7092 151.997 37.3002 138.82C35.9036 140.902 34.6061 143.063 33.6473 145.489C33.4962 148.094 33.7643 150.599 34.1553 153.075C49.1448 145.49 70.5661 163.411 73.3304 177.693C77.1977 178.125 80.4871 176.109 84.2716 176.189C82.3365 169.701 79.0271 161.381 73.4651 154.256L73.4655 154.256ZM126.821 86.3833C135.069 90.0917 143.944 91.3314 150.712 91.6713C149.737 88.0171 150.917 84.347 149.581 80.6957C135.036 81.3995 112.529 64.8589 116.354 48.5134C113.854 48.7209 111.354 49.0548 108.857 49.8188C106.724 51.3246 104.931 53.0962 103.237 54.9453C118.519 61.9234 117.85 89.8285 108.395 100.891C110.469 104.181 114.097 105.493 116.395 108.499C120.265 102.943 124.714 95.1701 126.822 86.3838L126.821 86.3833ZM213.204 85.7378C215.444 94.4918 220.008 102.197 223.961 107.694C226.214 104.655 229.822 103.288 231.846 99.9684C222.227 89.0471 221.139 61.1552 236.316 53.9497C234.594 52.1261 232.774 50.3816 230.62 48.9077C228.112 48.1811 225.607 47.8847 223.104 47.7145C227.171 64.0016 204.915 80.8763 190.362 80.3915C189.081 84.0621 190.315 87.7143 189.396 91.3825C196.158 90.9414 205.014 89.5695 213.205 85.7381L213.204 85.7378ZM233.749 117.275C243.627 109.515 252.226 100.176 257.773 87.0712C253.646 87.6603 249.248 87.9149 244.654 87.9263C242.275 93.4201 236.362 99.4696 231.382 104.383C230.477 105.277 226.458 108.712 226.421 109.069C226.311 110.159 229.389 112.414 230.085 113.173C231.59 114.815 232.469 116.025 233.749 117.276M164.31 90.0004C164.396 77.4463 162.448 64.9072 155.65 52.4043C153.539 55.9944 150.996 59.5884 148.14 63.1839C150.956 68.4673 152.004 76.8579 152.744 83.8105C152.88 85.0752 153.062 90.3551 153.319 90.6075C154.104 91.3724 157.787 90.3742 158.815 90.3037C161.039 90.1525 162.533 90.22 164.31 90.0004ZM99.6695 127.228C89.8978 119.334 78.8705 113.037 64.8459 110.551C66.3389 114.439 67.5662 118.666 68.5996 123.138C74.4904 124.232 81.7102 128.645 87.6129 132.402C88.6875 133.085 92.9334 136.234 93.2906 136.191C94.3787 136.055 95.894 132.556 96.4796 131.709C97.7478 129.878 98.7325 128.753 99.6685 127.228M88.5024 200.927C76.2314 203.637 64.4282 208.324 53.7394 217.727C57.7129 218.985 61.7863 220.662 65.9304 222.643C70.46 218.724 78.4152 215.837 85.0358 213.569C86.2398 213.155 91.352 211.803 91.5411 211.497C92.1129 210.562 90.3191 207.197 90.0216 206.212C89.3791 204.079 89.1126 202.609 88.5029 200.927M139.218 255.599C133.688 266.872 129.997 279.013 130.691 293.224C134.153 290.904 138.005 288.769 142.139 286.767C141.897 280.786 144.597 272.772 146.95 266.188C147.377 264.989 149.506 260.153 149.384 259.815C149.009 258.785 145.257 258.088 144.3 257.706C142.231 256.878 140.914 256.17 139.218 255.597M213.624 250.073C218.999 261.421 226.2 271.874 237.755 280.192C238.098 276.042 238.829 271.702 239.84 267.225C235.008 263.685 230.42 256.58 226.733 250.636C226.061 249.556 223.604 244.878 223.263 244.762C222.224 244.413 219.339 246.909 218.443 247.418C216.506 248.518 215.13 249.105 213.624 250.073M255.692 188.513C267.925 191.39 280.595 192.284 294.309 188.445C291.275 185.59 288.334 182.313 285.46 178.732C279.677 180.299 271.256 179.452 264.306 178.626C263.042 178.477 257.848 177.48 257.545 177.673C256.624 178.267 256.778 182.077 256.618 183.094C256.271 185.293 255.873 186.734 255.692 188.513M240.956 126.173C241.915 127.684 242.917 128.794 244.212 130.606C244.81 131.444 246.378 134.92 247.468 135.04C247.826 135.077 252.024 131.865 253.088 131.167C258.934 127.322 266.087 122.801 271.961 121.619C272.927 117.132 274.091 112.887 275.526 108.977C261.541 111.673 250.609 118.133 240.957 126.173M175.768 89.915C177.548 90.108 179.041 90.0181 181.267 90.136C182.296 90.1911 185.994 91.1342 186.767 90.3576C187.02 90.1015 187.123 84.8194 187.24 83.5529C187.876 76.5898 188.798 68.1847 191.534 62.8599C188.625 59.3076 186.029 55.7518 183.863 52.1937C177.254 64.797 175.494 77.3645 175.768 89.9159M106.747 118.226C108.007 116.956 108.868 115.734 110.348 114.069C111.033 113.3 114.076 111 113.951 109.911C113.908 109.554 109.839 106.18 108.92 105.299C103.867 100.462 97.8643 94.5008 95.4032 89.0433C90.8093 89.1007 86.4076 88.9117 82.2729 88.3844C88.0154 101.405 96.753 110.614 106.746 118.227M85.8669 189.788C85.6592 188.011 85.2391 186.577 84.8589 184.382C84.6838 183.368 84.7813 179.557 83.8513 178.976C83.5452 178.787 78.3675 179.862 77.1052 180.03C70.1687 180.96 61.7609 181.933 55.955 180.452C53.1357 184.076 50.2435 187.396 47.2529 190.297C61.0234 193.93 73.6794 192.847 85.8673 189.788M128.853 250.712C127.333 249.767 125.948 249.2 123.994 248.129C123.091 247.634 120.169 245.181 119.135 245.545C118.796 245.667 116.409 250.381 115.753 251.471C112.157 257.469 107.675 264.642 102.897 268.254C103.975 272.715 104.77 277.044 105.175 281.188C116.604 272.698 123.648 262.139 128.852 250.713M203.334 255.124C201.647 255.722 200.34 256.45 198.284 257.309C197.333 257.705 193.591 258.458 193.232 259.493C193.116 259.833 195.317 264.637 195.761 265.829C198.213 272.378 201.032 280.35 200.88 286.334C205.043 288.274 208.927 290.352 212.423 292.619C212.905 278.399 209.032 266.314 203.334 255.125M253.226 199.702C252.642 201.392 252.398 202.867 251.787 205.008C251.504 205.998 249.761 209.39 250.347 210.316C250.541 210.619 255.673 211.895 256.883 212.29C263.536 214.459 271.534 217.227 276.122 221.078C280.236 219.035 284.283 217.297 288.238 215.98C277.409 206.738 265.537 202.228 253.227 199.701M285.357 200.913C278.94 196.594 271.975 193.902 266.093 192.417C266.143 193.846 265.893 195.209 265.589 196.561C265.296 197.915 264.949 199.257 264.302 200.533C270.264 201.655 277.717 202.138 285.357 200.913ZM222.42 280.976C221.8 273.271 219.564 266.153 217.059 260.633C215.971 261.563 214.748 262.218 213.501 262.823C212.259 263.438 210.992 264.004 209.59 264.295C212.429 269.651 216.698 275.772 222.42 280.976ZM120.522 281.738C126.165 276.449 130.342 270.264 133.1 264.866C131.694 264.597 130.419 264.05 129.168 263.453C127.911 262.866 126.679 262.23 125.578 261.316C123.156 266.873 121.026 274.024 120.521 281.738L120.522 281.738ZM56.3931 202.625C64.0505 203.735 71.495 203.141 77.4395 201.93C76.7736 200.664 76.407 199.327 76.0939 197.978C75.7697 196.631 75.499 195.272 75.5276 193.842C69.6686 195.415 62.7446 198.21 56.3931 202.625ZM78.3246 103.212C82.2299 109.885 87.3364 115.33 91.9905 119.217C92.5662 117.908 93.3839 116.788 94.2447 115.702C95.0967 114.609 95.9918 113.55 97.1289 112.681C92.2447 109.086 85.7397 105.421 78.3245 103.213L78.3246 103.212ZM169.802 58.3598C167.015 65.5706 165.937 72.9533 165.796 79.0125C167.18 78.6458 168.567 78.5861 169.953 78.5815C171.34 78.5654 172.727 78.6044 174.116 78.9504C173.884 72.8941 172.697 65.5281 169.802 58.3599L169.802 58.3598ZM261.939 101.842C254.558 104.161 248.109 107.923 243.279 111.591C244.429 112.443 245.34 113.489 246.208 114.569C247.085 115.642 247.919 116.749 248.514 118.05C253.11 114.093 258.134 108.573 261.939 101.842ZM202.764 107.819C207.448 110.738 212.988 114.857 217.157 119.263C218.133 120.295 220.609 124.47 221.44 124.546C222.558 124.649 224.871 121.507 225.549 120.888C227.276 119.3 228.397 118.499 229.656 117.228C223.621 109.572 216.658 102.67 207.699 97.381C197.92 93.8275 188.161 92.838 178.409 93.0434C178.226 94.8229 178.319 96.1957 178.188 98.5375C178.139 99.4536 177.179 103.235 177.968 104.031C178.555 104.624 183.356 103.883 184.774 103.981C190.829 104.4 197.531 106.059 202.764 107.819L202.764 107.819ZM243.786 158.425C244.422 163.903 244.652 170.798 243.804 176.802C243.605 178.207 241.881 182.744 242.339 183.441C242.955 184.378 246.857 184.226 247.764 184.369C250.084 184.728 251.409 185.104 253.19 185.295C255.418 175.808 256.479 166.066 255.032 155.772C251.716 145.919 246.406 137.679 240.165 130.192C238.658 131.158 237.641 132.086 235.727 133.444C234.98 133.977 231.422 135.585 231.291 136.698C231.193 137.526 234.766 140.814 235.573 141.982C239.021 146.972 241.902 153.242 243.786 158.426L243.786 158.425ZM229.757 222.016C225.866 225.928 220.614 230.407 215.386 233.487C214.162 234.208 209.536 235.691 209.276 236.483C208.927 237.549 211.479 240.501 211.933 241.299C213.098 243.335 213.63 244.604 214.591 246.114C223.405 241.94 231.69 236.693 238.845 229.145C244.489 220.412 247.627 211.127 249.596 201.584C247.9 201.01 246.54 200.795 244.284 200.146C243.4 199.894 239.924 198.118 238.971 198.71C238.262 199.15 237.917 203.99 237.506 205.349C235.75 211.153 232.639 217.312 229.757 222.016L229.757 222.016ZM171.242 250.707C165.754 250.107 158.975 248.798 153.304 246.635C151.977 246.128 147.933 243.44 147.15 243.731C146.098 244.122 145.379 247.956 145.038 248.808C144.171 250.988 143.509 252.195 142.927 253.886C151.689 258.168 160.96 261.368 171.329 262.251C181.683 261.214 190.905 257.875 199.602 253.463C198.995 251.78 198.315 250.583 197.415 248.417C197.062 247.57 196.285 243.748 195.227 243.372C194.441 243.093 190.437 245.841 189.117 246.368C183.48 248.615 176.721 250.025 171.242 250.707L171.242 250.707ZM112.305 222.893C109.353 218.233 106.15 212.121 104.307 206.344C103.876 204.991 103.459 200.156 102.743 199.727C101.781 199.15 98.3317 200.978 97.4525 201.243C95.2063 201.925 93.8493 202.16 92.1623 202.76C94.2744 212.273 97.5503 221.51 103.325 230.159C110.592 237.599 118.955 242.721 127.831 246.763C128.77 245.239 129.282 243.962 130.417 241.909C130.859 241.105 133.367 238.114 133.001 237.054C132.73 236.265 128.082 234.852 126.848 234.15C121.574 231.148 116.256 226.748 112.306 222.894L112.305 222.893ZM97.3255 159.518C99.1323 154.306 101.919 147.995 105.291 142.953C106.081 141.773 109.605 138.433 109.495 137.606C109.346 136.495 105.765 134.94 105.01 134.419C103.075 133.09 102.045 132.176 100.524 131.233C94.3955 138.814 89.209 147.132 86.0409 157.034C84.7489 167.349 85.955 177.074 88.3256 186.525C90.103 186.308 91.4221 185.912 93.7366 185.518C94.6416 185.362 98.545 185.456 99.1471 184.51C99.595 183.806 97.8034 179.295 97.5835 177.892C96.6447 171.902 96.7723 165.005 97.3258 159.517L97.3255 159.518ZM137.583 108.306C142.788 106.468 149.465 104.709 155.513 104.2C156.929 104.081 161.741 104.75 162.319 104.149C163.096 103.34 162.08 99.5739 162.017 98.6586C161.851 96.3192 161.923 94.9451 161.713 93.1687C151.96 93.1089 142.216 94.2441 132.491 97.9434C123.613 103.365 116.754 110.371 110.834 118.116C112.113 119.369 113.245 120.152 114.996 121.714C115.682 122.324 118.043 125.431 119.159 125.311C119.989 125.222 122.402 121.01 123.362 119.964C127.465 115.496 132.943 111.295 137.583 108.306L137.583 108.306ZM262.69 195.926C262.879 194.907 263.087 193.891 263.31 192.879C259.725 192.119 256.07 191.677 252.461 191.026C252.261 191.865 252.071 192.705 251.891 193.549C251.7 194.389 251.518 195.232 251.347 196.078C254.896 197.002 258.398 198.135 261.971 198.952C262.193 197.94 262.433 196.931 262.69 195.926ZM212.193 260.162C213.109 259.674 214.034 259.203 214.965 258.747C213.324 255.473 211.391 252.343 209.651 249.118C208.87 249.485 208.093 249.86 207.321 250.246C206.544 250.62 205.771 251.004 205.003 251.397C206.492 254.745 207.788 258.187 209.377 261.487C210.308 261.03 211.247 260.588 212.193 260.162ZM130.436 260.773C131.389 261.185 132.334 261.612 133.272 262.056C134.811 258.732 136.055 255.272 137.494 251.902C136.72 251.52 135.942 251.148 135.159 250.785C134.381 250.411 133.599 250.047 132.812 249.692C131.12 252.943 129.235 256.101 127.643 259.399C128.581 259.842 129.512 260.299 130.435 260.773L130.436 260.773ZM78.983 197.298C79.2552 198.299 79.5096 199.304 79.7475 200.313C83.308 199.443 86.7926 198.257 90.3271 197.28C90.1429 196.438 89.9491 195.597 89.7449 194.76C89.5525 193.919 89.3496 193.081 89.1371 192.246C85.5383 192.951 81.8909 193.448 78.317 194.261C78.5559 195.269 78.7784 196.282 78.983 197.298ZM96.5795 117.536C95.966 118.373 95.3381 119.198 94.6969 120.013C97.5976 122.251 100.698 124.233 103.667 126.385C104.211 125.716 104.748 125.041 105.276 124.359C105.814 123.684 106.343 123.003 106.865 122.316C104.069 119.945 101.406 117.406 98.5416 115.122C97.9012 115.937 97.2476 116.742 96.5795 117.536ZM169.974 81.5473C168.937 81.5897 167.899 81.6138 166.862 81.6211C166.919 85.2823 167.3 88.9401 167.468 92.5998C168.331 92.6079 169.194 92.6061 170.057 92.5935C170.92 92.5932 171.783 92.5821 172.646 92.5611C172.758 88.8992 173.085 85.2361 173.087 81.5744C172.049 81.5827 171.012 81.5742 169.974 81.5473ZM243.9 116.435C243.22 115.652 242.554 114.856 241.902 114.051C239.072 116.378 236.447 118.956 233.687 121.369C234.219 122.048 234.758 122.721 235.306 123.387C235.845 124.061 236.391 124.728 236.946 125.389C239.882 123.194 242.952 121.165 245.819 118.883C245.166 118.078 244.526 117.263 243.9 116.435ZM184.766 164.272C180.603 165.828 176.772 167.813 173.427 169.855C172.881 165.977 171.982 161.76 170.542 157.56C169.164 161.781 168.329 166.011 167.841 169.897C164.466 167.905 160.605 165.978 156.42 164.484C158.865 168.192 161.654 171.482 164.391 174.285C160.728 175.68 156.813 177.493 153.034 179.831C157.46 180.234 161.775 180.106 165.675 179.716C164.483 183.447 163.461 187.636 162.934 192.045C166.009 188.839 168.599 185.389 170.726 182.1C172.901 185.357 175.543 188.767 178.665 191.927C178.073 187.527 176.988 183.353 175.74 179.641C179.646 179.973 183.961 180.036 188.381 179.567C184.568 177.286 180.626 175.531 176.942 174.192C179.637 171.348 182.377 168.016 184.766 164.272ZM189.686 135.472C191.505 136.538 193.414 137.512 195.403 138.354C205.286 136.44 214.051 131.355 220.062 127.006C217.196 124.725 215.523 121.48 212.697 119.165C208.371 121.517 202.912 124.326 196.727 125.762C196.053 125.447 195.393 125.115 194.746 124.77C194.069 124.49 193.393 124.191 192.721 123.871C189.903 118.187 188.608 112.191 187.679 107.359C184.094 106.648 180.523 107.418 176.938 106.655C177.394 114.056 179.029 124.049 183.826 132.89C185.741 133.89 187.706 134.743 189.685 135.471L189.686 135.472ZM213.989 165.453C214.29 167.539 214.717 169.636 215.298 171.715C222.958 178.241 232.403 181.917 239.554 183.9C239.553 180.24 241.049 176.909 241.098 173.259C236.561 171.347 230.959 168.834 225.979 164.899C225.805 164.176 225.653 163.453 225.52 162.733C225.316 162.03 225.129 161.315 224.961 160.591C227.652 154.846 231.538 150.096 234.74 146.357C233.061 143.115 230.232 140.805 228.594 137.53C223.086 142.5 216.285 150.008 212.356 159.268C212.767 161.386 213.324 163.454 213.989 165.453L213.989 165.453ZM205.678 203.127C204.233 204.662 202.857 206.304 201.593 208.053C201.262 218.106 204.274 227.774 207.181 234.596C210.044 232.313 213.583 231.405 216.471 229.167C215.138 224.431 213.612 218.489 213.587 212.146C214.045 211.56 214.515 210.99 214.996 210.437C215.419 209.84 215.862 209.248 216.323 208.665C222.498 207.185 228.638 207.258 233.56 207.428C235.051 204.095 235.095 200.446 236.637 197.125C229.313 195.921 219.197 195.29 209.499 197.995C208.098 199.637 206.827 201.361 205.677 203.127L205.678 203.127ZM171.012 220.125C168.91 219.954 166.767 219.903 164.609 220.006C156.536 226.015 150.847 234.396 147.32 240.92C150.893 241.733 153.81 243.93 157.362 244.791C160.238 240.797 163.936 235.9 168.885 231.926C169.629 231.918 170.368 231.93 171.101 231.961C171.832 231.919 172.571 231.896 173.315 231.893C178.323 235.793 182.094 240.634 185.03 244.584C188.568 243.671 191.452 241.43 195.012 240.563C191.388 234.093 185.574 225.798 177.412 219.911C175.253 219.84 173.111 219.922 171.012 220.125ZM136.093 203.647C134.917 201.898 133.621 200.193 132.194 198.572C122.458 196.013 112.352 196.795 105.047 198.108C106.638 201.405 106.737 205.054 108.278 208.364C113.197 208.121 119.335 207.956 125.531 209.343C126.001 209.92 126.452 210.505 126.885 211.096C127.374 211.641 127.853 212.204 128.319 212.783C128.389 219.126 126.952 225.09 125.691 229.846C128.612 232.04 132.164 232.895 135.061 235.135C137.866 228.27 140.732 218.558 140.251 208.512C138.96 206.782 137.56 205.161 136.093 203.647L136.093 203.647ZM127.219 166.102C127.854 164.092 128.38 162.017 128.759 159.892C124.692 150.692 117.779 143.287 112.197 138.4C110.609 141.699 107.814 144.051 106.185 147.318C109.442 151.008 113.398 155.7 116.175 161.404C116.018 162.131 115.841 162.848 115.649 163.554C115.526 164.276 115.385 165.001 115.222 165.726C110.302 169.736 104.738 172.332 100.229 174.312C100.334 177.961 101.879 181.268 101.932 184.929C109.053 182.839 118.442 179.022 126.004 172.382C126.553 170.295 126.949 168.191 127.219 166.102ZM151.07 135.762C153.038 135.005 154.99 134.122 156.89 133.094C161.554 124.18 163.04 114.164 163.384 106.757C159.811 107.573 156.229 106.857 152.656 107.621C151.799 112.466 150.594 118.481 147.861 124.207C147.194 124.537 146.523 124.846 145.85 125.136C145.208 125.491 144.553 125.832 143.884 126.157C137.678 124.814 132.178 122.087 127.817 119.801C125.026 122.157 123.401 125.426 120.57 127.75C126.645 132.009 135.486 136.962 145.397 138.729C147.373 137.857 149.266 136.854 151.07 135.761L151.07 135.762ZM233.119 125.157C231.511 123.64 229.997 122.15 229.965 121.354C221.479 127.32 214.369 134.984 208.939 144.718C219.599 141.435 228.581 136.081 236.188 129.03C235.415 128.833 234.271 127.044 233.119 125.158L233.119 125.157ZM249.141 192.945C249.327 190.744 249.549 188.633 250.152 188.11C240.192 185.203 229.761 184.428 218.758 186.256C227.973 192.535 237.763 196.212 248.024 197.757C247.696 197.029 248.383 195.02 249.141 192.945L249.141 192.945ZM206.078 247.726C207.917 246.498 209.708 245.355 210.493 245.501C206.558 235.908 200.661 227.279 192.37 219.823C193.201 230.936 196.427 240.875 201.616 249.853C201.981 249.143 203.982 248.427 206.078 247.726V247.726ZM136.358 248.247C138.466 248.917 140.477 249.603 140.852 250.307C145.906 241.253 148.983 231.267 149.648 220.142C141.469 227.72 135.702 236.437 131.912 246.086C132.694 245.929 134.502 247.045 136.358 248.245V248.247ZM92.48 194.116C93.2693 196.18 93.9862 198.178 93.6693 198.91C103.906 197.212 113.64 193.39 122.761 186.973C111.73 185.31 101.313 186.241 91.3977 189.297C92.0089 189.81 92.2626 191.918 92.4806 194.116L92.48 194.116ZM107.486 126.095C106.363 127.999 105.246 129.805 104.476 130.013C112.187 136.95 121.248 142.17 131.955 145.292C126.38 135.64 119.156 128.084 110.582 122.245C110.562 123.042 109.07 124.554 107.486 126.095H107.486ZM170.076 95.4065C167.886 95.7161 165.776 95.9696 165.133 95.4981C164.512 105.846 166.076 116.177 170.309 126.488C174.386 116.115 175.796 105.762 175.02 95.4229C174.383 95.904 172.27 95.682 170.076 95.4052L170.076 95.4065Z" fill="url(#paint2_radial_1247_7604)"/>
</g>
</g>
<g filter="url(#filter0_d_1247_7604)">
<path d="M27.88 8.48535V17.8149C18.4694 21.142 12.1627 30.0219 12.1211 40.0033C12.1229 50.0193 18.4369 58.9465 27.88 62.2852V71.5213H162.133H163.801H276.542H302.605H309.117V62.1916C318.528 58.8645 324.835 49.9847 324.876 40.0033C324.875 29.9873 318.561 21.0602 309.117 17.7215V8.48535H302.605H276.542H163.801H162.133H27.88ZM30.327 10.9322H162.135H163.799H276.542H302.604H306.672V19.4522L308.305 20.0287C316.779 23.0246 322.429 31.0155 322.431 39.9926C322.393 48.9493 316.75 56.8953 308.305 59.8808L306.672 60.4585V69.0756H302.604H276.542H163.799H162.135H30.327V60.5521L28.6945 59.9754C20.2208 56.9795 14.5709 48.9887 14.5692 40.0115C14.6066 31.0549 20.2501 23.1088 28.6945 20.1234L30.327 19.5458V10.9322Z" fill="#FFF2B2"/>
</g>
<g filter="url(#filter1_d_1247_7604)">
<path d="M32.7512 13.3574V21.2594L29.5027 22.409C22.0155 25.056 17.0253 32.0827 16.9922 40.0242C16.9937 47.9723 21.9894 55.0327 29.5027 57.6891L32.7512 58.8386V66.6506H162.133H163.798H276.541H302.603H304.246V58.7439L307.493 57.5944C314.98 54.9474 319.97 47.9208 320.004 39.9792C320.002 32.0311 315.006 24.9719 307.493 22.3155L304.246 21.1648V13.3574H302.603H276.541H163.798H162.133H32.7512ZM33.5384 14.1448H162.133H163.798H276.541H302.603H303.457V21.72L307.229 23.0576C314.426 25.6021 319.209 32.356 319.216 39.9887C319.181 47.5967 314.402 54.3161 307.229 56.8521L303.457 58.1899V65.8633H302.603H276.541H163.798H162.133H33.5384V58.2833L29.7668 56.9457C22.5726 54.4022 17.7903 47.6532 17.7795 40.0242V40.015V40.0013C17.8207 32.399 22.5978 25.6853 29.7668 23.1508L33.5384 21.8131V14.1448Z" fill="#FFF2B2"/>
</g>
<defs>
<filter id="filter0_d_1247_7604" x="6.12109" y="2.48535" width="324.754" height="75.0361" filterUnits="userSpaceOnUse" color-interpolation-filters="sRGB">
<feFlood flood-opacity="0" result="BackgroundImageFix"/>
<feColorMatrix in="SourceAlpha" type="matrix" values="0 0 0 0 0 0 0 0 0 0 0 0 0 0 0 0 0 0 127 0" result="hardAlpha"/>
<feOffset/>
<feGaussianBlur stdDeviation="3"/>
<feComposite in2="hardAlpha" operator="out"/>
<feColorMatrix type="matrix" values="0 0 0 0 1 0 0 0 0 0.949679 0 0 0 0 0.698077 0 0 0 0.58 0"/>
<feBlend mode="normal" in2="BackgroundImageFix" result="effect1_dropShadow_1247_7604"/>
<feBlend mode="normal" in="SourceGraphic" in2="effect1_dropShadow_1247_7604" result="shape"/>
</filter>
<filter id="filter1_d_1247_7604" x="4.99219" y="1.35742" width="327.012" height="77.293" filterUnits="userSpaceOnUse" color-interpolation-filters="sRGB">
<feFlood flood-opacity="0" result="BackgroundImageFix"/>
<feColorMatrix in="SourceAlpha" type="matrix" values="0 0 0 0 0 0 0 0 0 0 0 0 0 0 0 0 0 0 127 0" result="hardAlpha"/>
<feOffset/>
<feGaussianBlur stdDeviation="6"/>
<feComposite in2="hardAlpha" operator="out"/>
<feColorMatrix type="matrix" values="0 0 0 0 1 0 0 0 0 0.949679 0 0 0 0 0.698077 0 0 0 0.7 0"/>
<feBlend mode="normal" in2="BackgroundImageFix" result="effect1_dropShadow_1247_7604"/>
<feBlend mode="normal" in="SourceGraphic" in2="effect1_dropShadow_1247_7604" result="shape"/>
</filter>
<linearGradient id="paint0_linear_1247_7604" x1="168.499" y1="8.48535" x2="168.499" y2="71.5213" gradientUnits="userSpaceOnUse">
<stop stop-color="#3E424F"/>
<stop offset="1" stop-color="#5D6480"/>
</linearGradient>
<linearGradient id="paint1_linear_1247_7604" x1="12.1211" y1="40.0033" x2="324.876" y2="40.0033" gradientUnits="userSpaceOnUse">
<stop stop-color="#212328" stop-opacity="0.3"/>
<stop offset="0.495192" stop-opacity="0"/>
<stop offset="1" stop-color="#2E3038" stop-opacity="0.3"/>
</linearGradient>
<radialGradient id="paint2_radial_1247_7604" cx="0" cy="0" r="1" gradientUnits="userSpaceOnUse" gradientTransform="translate(170.923 168.499) rotate(90) scale(193.957 198.806)">
<stop stop-color="white"/>
<stop offset="1" stop-color="#999999" stop-opacity="0.35"/>
</radialGradient>
</defs>
</svg>
