<svg width="351" height="80" viewBox="0 0 351 80" fill="none" xmlns="http://www.w3.org/2000/svg">
<g clip-path="url(#clip0_1225_7433)">
<path d="M210.817 7.08879C216.485 7.19934 222.053 11.901 226.285 16.7148L312.45 16.4356L320.495 27.5375C333.437 29.4362 342.951 43.3641 342.951 43.3641C342.951 43.3641 333.402 57.3138 320.426 59.1998L312.45 70.2059L41.7528 71.085L33.7662 60.5244C18.6908 59.5299 7.01562 44.2432 7.01562 44.2432C7.04387 44.2061 18.6729 28.9771 33.6965 27.9669L41.7528 17.3156L122.823 17.0515C127.091 12.1224 132.788 7.20162 138.589 7.08879C148.108 6.90388 161.388 13.4721 167.66 16.9054L181.826 16.859C188.131 13.4135 201.339 6.90448 210.817 7.08879Z" fill="#3E414C"/>
<g filter="url(#filter0_d_1225_7433)">
<path d="M225.657 16.1406L224.787 16.3602L225.049 16.6584L225.663 16.6565L225.657 16.1406ZM311.566 15.8615L312.463 15.6752L312.224 15.3435L311.56 15.3457L311.566 15.8615ZM319.587 26.9575L318.69 27.1439L318.865 27.3862L319.333 27.455L319.587 26.9575ZM341.976 42.7758L342.881 42.9531L343 42.776L342.881 42.5989L341.976 42.7758ZM319.518 58.6031L319.265 58.1053L318.796 58.1737L318.621 58.4168L319.518 58.6031ZM311.566 69.6034L311.571 70.1192L312.228 70.1172L312.463 69.7898L311.566 69.6034ZM41.6735 70.482L40.7812 70.6753L41.0261 71L41.6794 70.9978L41.6735 70.482ZM33.7105 59.927L34.6027 59.7337L34.3906 59.4522L33.8283 59.4151L33.7105 59.927ZM7.03955 43.6544L6.14837 43.4595L6 43.6545L6.1485 43.8494L7.03955 43.6544ZM33.641 27.3867L33.7612 27.8986L34.3215 27.8608L34.5333 27.5802L33.641 27.3867ZM41.6735 16.7411L41.6677 16.2253L41.023 16.2274L40.7812 16.5477L41.6735 16.7411ZM122.502 16.4772L122.508 16.993L123.119 16.991L123.376 16.6938L122.502 16.4772ZM167.207 16.3311L166.518 16.6915L166.804 16.8483L167.213 16.8469L167.207 16.3311ZM181.33 16.2847L181.336 16.8005L181.737 16.7993L182.018 16.6454L181.33 16.2847ZM210.235 6.51969L210.198 7.0352C212.564 7.08142 215.124 8.11045 217.725 9.88592C220.281 11.6312 222.689 13.9685 224.787 16.3602L225.657 16.1406L226.529 15.9211C224.406 13.5016 221.927 11.0836 219.24 9.24883C216.597 7.44428 213.557 6.06844 210.269 6.00417L210.235 6.51969ZM225.657 16.1406L225.663 16.6565L311.571 16.3774L311.566 15.8615L311.56 15.3457L225.652 15.6248L225.657 16.1406ZM311.566 15.8615L310.669 16.0479L318.69 27.1439L319.587 26.9575L320.484 26.7711L312.463 15.6752L311.566 15.8615ZM319.587 26.9575L319.333 27.455C322.311 27.8929 325.173 29.0404 327.822 30.5794C330.459 32.1127 332.813 33.9951 334.786 35.8352C336.755 37.6732 338.328 39.4548 339.41 40.7781C339.951 41.4392 340.369 41.9848 340.648 42.3642C340.788 42.554 340.896 42.702 340.967 42.8023C341.002 42.8523 341.029 42.8905 341.046 42.9159C341.056 42.9285 341.062 42.938 341.065 42.9442C341.067 42.9473 341.069 42.9495 341.071 42.951C341.071 42.9517 341.071 42.9522 341.071 42.9525C341.071 42.9524 341.071 42.9526 341.071 42.9525C341.071 42.9525 341.071 42.9528 341.976 42.7758C342.881 42.5989 342.881 42.5991 342.881 42.5989C342.881 42.5987 342.879 42.5981 342.879 42.5978C342.879 42.5973 342.879 42.5965 342.879 42.5955C342.877 42.5936 342.875 42.5908 342.873 42.5872C342.867 42.58 342.859 42.5694 342.85 42.5557C342.831 42.5283 342.804 42.488 342.765 42.4357C342.692 42.3311 342.582 42.1783 342.438 41.9836C342.149 41.5945 341.724 41.0377 341.173 40.3641C340.074 39.0179 338.469 37.2008 336.455 35.3213C334.444 33.4442 332.007 31.4906 329.237 29.8801C326.476 28.2753 323.315 26.9709 319.843 26.46L319.587 26.9575ZM341.976 42.7758C341.073 42.5985 341.073 42.5984 341.073 42.5984C341.073 42.5985 341.073 42.5986 341.071 42.5987C341.071 42.5991 341.071 42.5996 341.071 42.6003C341.069 42.6017 341.069 42.604 341.065 42.6071C341.062 42.6133 341.056 42.6228 341.046 42.6355C341.029 42.6609 341.002 42.699 340.967 42.7493C340.896 42.8496 340.788 42.9979 340.648 43.188C340.365 43.5679 339.947 44.1143 339.404 44.7764C338.32 46.1014 336.74 47.8854 334.765 49.7252C332.786 51.5673 330.424 53.4511 327.778 54.9847C325.123 56.5239 322.251 57.6703 319.265 58.1053L319.518 58.6031L319.77 59.1009C323.254 58.5934 326.422 57.2902 329.192 55.685C331.97 54.0742 334.415 52.119 336.432 50.2399C338.453 48.3586 340.063 46.5391 341.167 45.1911C341.72 44.5166 342.147 43.959 342.436 43.5692C342.58 43.3743 342.69 43.2212 342.765 43.1165C342.804 43.064 342.831 43.0237 342.85 42.9963C342.859 42.9824 342.867 42.9719 342.871 42.9647C342.875 42.9611 342.877 42.9583 342.877 42.9564C342.879 42.9554 342.879 42.9547 342.879 42.9541C342.879 42.9539 342.879 42.9532 342.881 42.9531C342.881 42.9529 342.881 42.9531 341.976 42.7758ZM319.518 58.6031L318.621 58.4168L310.669 69.417L311.566 69.6034L312.463 69.7898L320.415 58.7896L319.518 58.6031ZM311.566 69.6034L311.56 69.0876L41.6677 69.9661L41.6735 70.482L41.6794 70.9978L311.571 70.1192L311.566 69.6034ZM41.6735 70.482L42.5659 70.2886L34.6027 59.7337L33.7105 59.927L32.8183 60.1205L40.7812 70.6753L41.6735 70.482ZM33.7105 59.927L33.8283 59.4151C30.3492 59.185 26.9827 58.1204 23.852 56.5846C20.7292 55.0528 17.9157 53.0888 15.5453 51.1366C13.178 49.1871 11.2721 47.2655 9.9572 45.8299C9.30026 45.1126 8.79207 44.5179 8.44876 44.1035C8.27713 43.8963 8.14679 43.7342 8.05975 43.6245C8.01623 43.5696 7.98352 43.5277 7.96192 43.4999C7.9511 43.486 7.94308 43.4756 7.93784 43.4688C7.93522 43.4654 7.93332 43.4629 7.93211 43.4614C7.93151 43.4605 7.93107 43.46 7.93082 43.4596C7.9307 43.4595 7.93087 43.4597 7.93082 43.4596C7.9308 43.4596 7.9306 43.4594 7.03955 43.6544C6.1485 43.8494 6.14834 43.8492 6.1485 43.8494C6.14862 43.8495 6.14911 43.8502 6.14934 43.8505C6.1498 43.851 6.15043 43.8519 6.15124 43.853C6.15287 43.8551 6.1552 43.8582 6.15824 43.8621C6.16431 43.87 6.1732 43.8815 6.18488 43.8965C6.20824 43.9266 6.24275 43.9707 6.28815 44.028C6.37896 44.1425 6.51338 44.3096 6.6894 44.5222C7.04139 44.9471 7.56003 45.5539 8.22924 46.2845C9.56667 47.7447 11.5102 49.705 13.9319 51.6994C16.3504 53.6911 19.2653 55.7332 22.5524 57.3457C25.8315 58.9542 29.5567 60.1721 33.5927 60.4391L33.7105 59.927ZM7.03955 43.6544L7.93072 43.8492C7.93107 43.8488 7.93216 43.8473 7.93288 43.8464C7.9343 43.8445 7.93642 43.8418 7.93923 43.8381C7.94487 43.8308 7.95328 43.8199 7.96446 43.8054C7.98681 43.7767 8.02017 43.7339 8.06429 43.6783C8.15253 43.5669 8.28381 43.4035 8.45611 43.1953C8.80076 42.7789 9.30927 42.1834 9.96564 41.4661C11.2794 40.0305 13.1806 38.1121 15.5407 36.1664C17.904 34.2182 20.7079 32.2588 23.8197 30.7295C26.9395 29.1964 30.2941 28.1322 33.7612 27.8986L33.641 27.3867L33.5209 26.8749C29.4986 27.146 25.7867 28.3631 22.5188 29.9691C19.2431 31.5789 16.3381 33.6163 13.9268 35.6041C9.10353 39.5805 6.17105 43.4297 6.14837 43.4595L7.03955 43.6544ZM33.641 27.3867L34.5333 27.5802L42.5659 16.9345L41.6735 16.7411L40.7812 16.5477L32.7486 27.1933L33.641 27.3867ZM41.6735 16.7411L41.6794 17.2569L122.508 16.993L122.502 16.4772L122.496 15.9613L41.6677 16.2253L41.6735 16.7411ZM122.502 16.4772L123.376 16.6938C125.492 14.2443 127.94 11.8231 130.551 10.0083C133.209 8.16077 135.835 7.08242 138.257 7.0352L138.222 6.51969L138.187 6.00417C134.825 6.06971 131.719 7.50686 129.027 9.37829C126.287 11.2824 123.768 13.7835 121.629 16.2604L122.502 16.4772ZM138.222 6.51969L138.257 7.0352C140.425 6.99297 142.879 7.33698 145.481 7.96284C148.075 8.58675 150.757 9.47619 153.364 10.4872C158.578 12.5094 163.408 14.985 166.518 16.6915L167.207 16.3311L167.895 15.9706C164.752 14.2457 159.834 11.7231 154.492 9.65135C151.821 8.61535 149.022 7.68379 146.269 7.02156C143.524 6.36128 140.763 5.954 138.187 6.00417L138.222 6.51969ZM167.207 16.3311L167.213 16.8469L181.336 16.8005L181.33 16.2847L181.324 15.7689L167.201 15.8152L167.207 16.3311ZM181.33 16.2847L182.018 16.6454C185.144 14.9329 189.964 12.4691 195.159 10.4601C197.757 9.45566 200.427 8.57312 203.008 7.95442C205.597 7.3338 208.04 6.99311 210.198 7.0352L210.235 6.51969L210.269 6.00417C207.703 5.95416 204.956 6.35758 202.223 7.01255C199.482 7.66945 196.695 8.59399 194.033 9.6234C188.71 11.682 183.802 14.1928 180.642 15.9239L181.33 16.2847Z" fill="#FFF2B2"/>
</g>
<path opacity="0.2" d="M210.568 10C210.757 10.0632 211.723 10.3534 213.408 11.48C215.561 12.9186 217.773 14.9845 219.84 17.2918L221.998 19.699L309.888 19.4185L317.603 29.8683L321.445 30.4221C322.729 30.6068 324.605 31.2102 326.915 32.5253C329.147 33.7952 331.27 35.4372 333.153 37.158C335.017 38.8603 336.522 40.5275 337.567 41.7775C337.723 41.9654 337.865 42.144 338 42.31C336.979 43.5683 335.3 45.5002 333.112 47.4925C331.222 49.2112 329.096 50.8479 326.864 52.113C324.553 53.4228 322.676 54.0228 321.392 54.206L317.536 54.7568L309.862 65.1494L43.2175 66L35.3002 55.7238L30.6867 55.4248L30.3835 55.4003C28.8338 55.253 26.7735 54.711 24.2688 53.5104C21.6599 52.2598 19.1405 50.5668 16.8809 48.7481C14.2666 46.6439 12.2391 44.5623 11 43.1943C11.16 43.0174 11.328 42.8274 11.5139 42.6282C12.7794 41.2726 14.5974 39.4777 16.8268 37.6761C19.0822 35.8537 21.6006 34.1539 24.2108 32.8966C26.8849 31.6086 29.0534 31.073 30.6327 30.9688L35.2345 30.6648L43.2426 20.2692L126.037 20.006L128.153 17.608C130.241 15.2402 132.502 13.0879 134.719 11.5779C136.506 10.3615 137.522 10.062 137.7 10C138.517 10.0174 139.854 10.1663 141.773 10.6181C143.867 11.1113 146.204 11.8585 148.651 12.7876C153.55 14.6479 158.199 16.9726 161.274 18.625L163.622 19.8857L184.773 19.8173L187.078 18.5811C190.169 16.9229 194.807 14.6101 199.684 12.7631C202.12 11.8406 204.445 11.0994 206.527 10.611C208.429 10.1646 209.756 10.0175 210.568 10Z" stroke="#FFF2B2" stroke-width="1.03042" stroke-linecap="round"/>
<g clip-path="url(#clip1_1225_7433)">
<g filter="url(#filter1_g_1225_7433)">
<path d="M9.38506 35.9488V16.3846H27.1176V13.887H53.9935V10.002H64.1067V20.5472H37.9234V29.8436H27.1176V24.4323H23.7928V35.3937H14.7879V46.4939H1.76562V35.9488H9.38506Z" fill="#EBDBC6"/>
<path d="M9.38506 35.9488V16.3846H27.1177M9.38506 35.9488H1.76562V46.4939H14.7879V35.3937M9.38506 35.9488V41.2214H5.92169V39.0013M27.1177 16.3846H37.9234V20.5472M27.1177 16.3846V13.887H53.9935M14.7879 35.3937H23.7928V24.4323H27.1177M14.7879 35.3937H12.8485V28.7336H19.4982V32.4799H16.3119M27.1177 24.4323V29.8436H37.9234V20.5472M27.1177 24.4323V22.0735H32.5205V25.9586H30.1655M37.9234 20.5472H64.1067V10.002H53.9935V13.887M53.9935 13.887V18.0496H59.9506V13.887H57.1799" stroke="url(#paint0_linear_1225_7433)" stroke-width="1.5205"/>
</g>
</g>
<g clip-path="url(#clip2_1225_7433)">
<g filter="url(#filter2_g_1225_7433)">
<path d="M340.909 47.6293V67.1935H323.789V69.6911H297.84V73.5762H288.076V63.0309H313.356V53.7344H323.789V59.1458H326.999V48.1843H335.693V37.0841H348.266V47.6293H340.909Z" fill="#EBDBC6"/>
<path d="M340.909 47.6293V67.1935H323.789M340.909 47.6293H348.266V37.0841H335.693V48.1843M340.909 47.6293V42.3567H344.253V44.5768M323.789 67.1935H313.356V63.0309M323.789 67.1935V69.6911H297.84M335.693 48.1843H326.999V59.1458H323.789M335.693 48.1843H337.565V54.8445H331.145V51.0982H334.221M323.789 59.1458V53.7344H313.356V63.0309M323.789 59.1458V61.5046H318.572V57.6195H320.846M313.356 63.0309H288.076V73.5762H297.84V69.6911M297.84 69.6911V65.5285H292.089V69.6911H294.764" stroke="#CBBBA5" stroke-width="1.52051"/>
<path d="M340.909 47.6293V67.1935H323.789M340.909 47.6293H348.266V37.0841H335.693V48.1843M340.909 47.6293V42.3567H344.253V44.5768M323.789 67.1935H313.356V63.0309M323.789 67.1935V69.6911H297.84M335.693 48.1843H326.999V59.1458H323.789M335.693 48.1843H337.565V54.8445H331.145V51.0982H334.221M323.789 59.1458V53.7344H313.356V63.0309M323.789 59.1458V61.5046H318.572V57.6195H320.846M313.356 63.0309H288.076V73.5762H297.84V69.6911M297.84 69.6911V65.5285H292.089V69.6911H294.764" stroke="url(#paint1_linear_1225_7433)" stroke-width="1.52051"/>
</g>
</g>
</g>
<defs>
<filter id="filter0_d_1225_7433" x="-1" y="-1" width="351" height="79" filterUnits="userSpaceOnUse" color-interpolation-filters="sRGB">
<feFlood flood-opacity="0" result="BackgroundImageFix"/>
<feColorMatrix in="SourceAlpha" type="matrix" values="0 0 0 0 0 0 0 0 0 0 0 0 0 0 0 0 0 0 127 0" result="hardAlpha"/>
<feOffset/>
<feGaussianBlur stdDeviation="3.5"/>
<feComposite in2="hardAlpha" operator="out"/>
<feColorMatrix type="matrix" values="0 0 0 0 1 0 0 0 0 0.949679 0 0 0 0 0.698077 0 0 0 1 0"/>
<feBlend mode="normal" in2="BackgroundImageFix" result="effect1_dropShadow_1225_7433"/>
<feBlend mode="normal" in="SourceGraphic" in2="effect1_dropShadow_1225_7433" result="shape"/>
</filter>
<filter id="filter1_g_1225_7433" x="-1.02344" y="7.21484" width="67.918" height="42.0664" filterUnits="userSpaceOnUse" color-interpolation-filters="sRGB">
<feFlood flood-opacity="0" result="BackgroundImageFix"/>
<feBlend mode="normal" in="SourceGraphic" in2="BackgroundImageFix" result="shape"/>
<feTurbulence type="fractalNoise" baseFrequency="0.020527645945549011 0.020527645945549011" numOctaves="3" seed="3148" />
<feDisplacementMap in="shape" scale="4.0546855926513672" xChannelSelector="R" yChannelSelector="G" result="displacedImage" width="100%" height="100%" />
<feMerge result="effect1_texture_1225_7433">
<feMergeNode in="displacedImage"/>
</feMerge>
</filter>
<filter id="filter2_g_1225_7433" x="285.289" y="34.2969" width="65.7656" height="42.0664" filterUnits="userSpaceOnUse" color-interpolation-filters="sRGB">
<feFlood flood-opacity="0" result="BackgroundImageFix"/>
<feBlend mode="normal" in="SourceGraphic" in2="BackgroundImageFix" result="shape"/>
<feTurbulence type="fractalNoise" baseFrequency="0.020527632907032967 0.020527632907032967" numOctaves="3" seed="3148" />
<feDisplacementMap in="shape" scale="4.0546884536743164" xChannelSelector="R" yChannelSelector="G" result="displacedImage" width="100%" height="100%" />
<feMerge result="effect1_texture_1225_7433">
<feMergeNode in="displacedImage"/>
</feMerge>
</filter>
<linearGradient id="paint0_linear_1225_7433" x1="66.5566" y1="5.61764" x2="6.00585" y2="26.6369" gradientUnits="userSpaceOnUse">
<stop stop-color="#FFE8D7"/>
<stop offset="0.278883" stop-color="#7E6C5F"/>
<stop offset="0.754693" stop-color="#E4C3AC"/>
<stop offset="1" stop-color="#8C7869"/>
</linearGradient>
<linearGradient id="paint1_linear_1225_7433" x1="318.408" y1="72.2643" x2="318.404" y2="37.084" gradientUnits="userSpaceOnUse">
<stop stop-color="#FFE8D7"/>
<stop offset="0.278883" stop-color="#7E6C5F"/>
<stop offset="0.754693" stop-color="#E4C3AC"/>
<stop offset="1" stop-color="#8C7869"/>
</linearGradient>
<clipPath id="clip0_1225_7433">
<rect width="351" height="80" fill="white"/>
</clipPath>
<clipPath id="clip1_1225_7433">
<rect width="67.9163" height="42.0671" fill="white" transform="translate(-1.02344 7.21387)"/>
</clipPath>
<clipPath id="clip2_1225_7433">
<rect width="65.5724" height="42.0672" fill="white" transform="matrix(-1 0 0 -1 350.957 76.3633)"/>
</clipPath>
</defs>
</svg>
