<svg width="40" height="40" viewBox="0 0 40 40" fill="none" xmlns="http://www.w3.org/2000/svg">
<rect x="17.1445" y="17.1426" width="5.71429" height="5.71429" fill="#40434F"/>
<rect x="14.2852" y="14.2861" width="2.85714" height="2.85714" fill="#40434F"/>
<rect x="11.4297" y="14.2861" width="2.85714" height="2.85714" fill="#40434F"/>
<rect x="11.4297" y="11.4287" width="2.85714" height="2.85714" fill="#40434F"/>
<rect x="8.57031" y="11.4287" width="2.85714" height="2.85714" fill="#40434F"/>
<rect x="11.4297" y="11.4287" width="2.85714" height="2.85714" fill="#40434F"/>
<rect x="8.57031" y="11.4287" width="2.85714" height="2.85714" fill="#40434F"/>
<rect x="11.4297" y="11.4287" width="2.85714" height="2.85714" fill="#40434F"/>
<rect x="8.57031" y="11.4287" width="2.85714" height="2.85714" fill="#40434F"/>
<rect x="8.57031" y="8.57129" width="2.85714" height="2.85714" fill="#40434F"/>
<rect x="5.71484" y="8.57129" width="2.85714" height="2.85714" fill="#40434F"/>
<rect x="8.57031" y="8.57129" width="2.85714" height="2.85714" fill="#40434F"/>
<rect x="5.71484" y="8.57129" width="2.85714" height="2.85714" fill="#40434F"/>
<rect x="5.71484" y="5.71387" width="2.85714" height="2.85714" fill="#40434F"/>
<rect x="8.57031" y="5.71387" width="2.85714" height="2.85714" fill="#40434F"/>
<rect x="8.57031" y="2.85742" width="2.85714" height="2.85714" fill="#40434F"/>
<rect x="5.71484" y="2.85742" width="2.85714" height="2.85714" fill="#40434F"/>
<rect x="2.85547" y="2.85742" width="2.85714" height="2.85714" fill="#40434F"/>
<rect width="14.2857" height="2.85714" fill="#40434F"/>
<rect y="2.85742" width="2.85714" height="11.4286" fill="#40434F"/>
<rect x="11.4297" width="2.85714" height="2.85714" fill="#40434F"/>
<rect x="2.85547" y="5.71387" width="2.85714" height="2.85714" fill="#40434F"/>
<rect x="2.85547" y="8.57129" width="2.85714" height="2.85714" fill="#40434F"/>
<rect x="8.57031" y="5.71387" width="2.85714" height="2.85714" fill="#40434F"/>
<rect x="11.4297" y="8.57129" width="2.85714" height="2.85714" fill="#40434F"/>
<rect x="11.4297" y="8.57129" width="2.85714" height="2.85714" fill="#40434F"/>
<rect x="11.4297" y="8.57129" width="2.85714" height="2.85714" fill="#40434F"/>
<rect x="14.2852" y="11.4287" width="2.85714" height="2.85714" fill="#40434F"/>
<rect x="17.1445" y="14.2861" width="2.85714" height="2.85714" fill="#40434F"/>
<rect x="14.2852" y="17.1426" width="2.85714" height="2.85714" fill="#40434F"/>
<rect x="22.8555" y="17.1426" width="5.71429" height="5.71429" transform="rotate(90 22.8555 17.1426)" fill="#40434F"/>
<rect x="25.7148" y="14.2861" width="2.85714" height="2.85714" transform="rotate(90 25.7148 14.2861)" fill="#40434F"/>
<rect x="25.7148" y="11.4287" width="2.85714" height="2.85714" transform="rotate(90 25.7148 11.4287)" fill="#40434F"/>
<rect x="28.5703" y="11.4287" width="2.85714" height="2.85714" transform="rotate(90 28.5703 11.4287)" fill="#40434F"/>
<rect x="28.5703" y="8.57129" width="2.85714" height="2.85714" transform="rotate(90 28.5703 8.57129)" fill="#40434F"/>
<rect x="28.5703" y="11.4287" width="2.85714" height="2.85714" transform="rotate(90 28.5703 11.4287)" fill="#40434F"/>
<rect x="28.5703" y="8.57129" width="2.85714" height="2.85714" transform="rotate(90 28.5703 8.57129)" fill="#40434F"/>
<rect x="28.5703" y="11.4287" width="2.85714" height="2.85714" transform="rotate(90 28.5703 11.4287)" fill="#40434F"/>
<rect x="28.5703" y="8.57129" width="2.85714" height="2.85714" transform="rotate(90 28.5703 8.57129)" fill="#40434F"/>
<rect x="31.4297" y="8.57129" width="2.85714" height="2.85714" transform="rotate(90 31.4297 8.57129)" fill="#40434F"/>
<rect x="31.4297" y="5.71387" width="2.85714" height="2.85714" transform="rotate(90 31.4297 5.71387)" fill="#40434F"/>
<rect x="31.4297" y="8.57129" width="2.85714" height="2.85714" transform="rotate(90 31.4297 8.57129)" fill="#40434F"/>
<rect x="31.4297" y="5.71387" width="2.85714" height="2.85714" transform="rotate(90 31.4297 5.71387)" fill="#40434F"/>
<rect x="34.2852" y="5.71387" width="2.85714" height="2.85714" transform="rotate(90 34.2852 5.71387)" fill="#40434F"/>
<rect x="34.2852" y="8.57129" width="2.85714" height="2.85714" transform="rotate(90 34.2852 8.57129)" fill="#40434F"/>
<rect x="37.1445" y="8.57129" width="2.85714" height="2.85714" transform="rotate(90 37.1445 8.57129)" fill="#40434F"/>
<rect x="37.1445" y="5.71387" width="2.85714" height="2.85714" transform="rotate(90 37.1445 5.71387)" fill="#40434F"/>
<rect x="37.1445" y="2.85742" width="2.85714" height="2.85714" transform="rotate(90 37.1445 2.85742)" fill="#40434F"/>
<rect x="40" width="14.2857" height="2.85714" transform="rotate(90 40 0)" fill="#40434F"/>
<rect x="37.1445" width="2.85714" height="11.4286" transform="rotate(90 37.1445 0)" fill="#40434F"/>
<rect x="40" y="11.4287" width="2.85714" height="2.85714" transform="rotate(90 40 11.4287)" fill="#40434F"/>
<rect x="34.2852" y="2.85742" width="2.85714" height="2.85714" transform="rotate(90 34.2852 2.85742)" fill="#40434F"/>
<rect x="31.4297" y="2.85742" width="2.85714" height="2.85714" transform="rotate(90 31.4297 2.85742)" fill="#40434F"/>
<rect x="34.2852" y="8.57129" width="2.85714" height="2.85714" transform="rotate(90 34.2852 8.57129)" fill="#40434F"/>
<rect x="31.4297" y="11.4287" width="2.85714" height="2.85714" transform="rotate(90 31.4297 11.4287)" fill="#40434F"/>
<rect x="31.4297" y="11.4287" width="2.85714" height="2.85714" transform="rotate(90 31.4297 11.4287)" fill="#40434F"/>
<rect x="31.4297" y="11.4287" width="2.85714" height="2.85714" transform="rotate(90 31.4297 11.4287)" fill="#40434F"/>
<rect x="28.5703" y="14.2861" width="2.85714" height="2.85714" transform="rotate(90 28.5703 14.2861)" fill="#40434F"/>
<rect x="25.7148" y="17.1426" width="2.85714" height="2.85714" transform="rotate(90 25.7148 17.1426)" fill="#40434F"/>
<rect x="22.8555" y="14.2861" width="2.85714" height="2.85714" transform="rotate(90 22.8555 14.2861)" fill="#40434F"/>
<rect x="22.8555" y="22.8574" width="5.71429" height="5.71429" transform="rotate(-180 22.8555 22.8574)" fill="#40434F"/>
<rect x="25.7148" y="25.7139" width="2.85714" height="2.85714" transform="rotate(-180 25.7148 25.7139)" fill="#40434F"/>
<rect x="28.5703" y="25.7139" width="2.85714" height="2.85714" transform="rotate(-180 28.5703 25.7139)" fill="#40434F"/>
<rect x="28.5703" y="28.5713" width="2.85714" height="2.85714" transform="rotate(-180 28.5703 28.5713)" fill="#40434F"/>
<rect x="31.4297" y="28.5713" width="2.85714" height="2.85714" transform="rotate(-180 31.4297 28.5713)" fill="#40434F"/>
<rect x="28.5703" y="28.5713" width="2.85714" height="2.85714" transform="rotate(-180 28.5703 28.5713)" fill="#40434F"/>
<rect x="31.4297" y="28.5713" width="2.85714" height="2.85714" transform="rotate(-180 31.4297 28.5713)" fill="#40434F"/>
<rect x="28.5703" y="28.5713" width="2.85714" height="2.85714" transform="rotate(-180 28.5703 28.5713)" fill="#40434F"/>
<rect x="31.4297" y="28.5713" width="2.85714" height="2.85714" transform="rotate(-180 31.4297 28.5713)" fill="#40434F"/>
<rect x="31.4297" y="31.4287" width="2.85714" height="2.85714" transform="rotate(-180 31.4297 31.4287)" fill="#40434F"/>
<rect x="34.2852" y="31.4287" width="2.85714" height="2.85714" transform="rotate(-180 34.2852 31.4287)" fill="#40434F"/>
<rect x="31.4297" y="31.4287" width="2.85714" height="2.85714" transform="rotate(-180 31.4297 31.4287)" fill="#40434F"/>
<rect x="34.2852" y="31.4287" width="2.85714" height="2.85714" transform="rotate(-180 34.2852 31.4287)" fill="#40434F"/>
<rect x="34.2852" y="34.2861" width="2.85714" height="2.85714" transform="rotate(-180 34.2852 34.2861)" fill="#40434F"/>
<rect x="31.4297" y="34.2861" width="2.85714" height="2.85714" transform="rotate(-180 31.4297 34.2861)" fill="#40434F"/>
<rect x="31.4297" y="37.1426" width="2.85714" height="2.85714" transform="rotate(-180 31.4297 37.1426)" fill="#40434F"/>
<rect x="34.2852" y="37.1426" width="2.85714" height="2.85714" transform="rotate(-180 34.2852 37.1426)" fill="#40434F"/>
<rect x="37.1445" y="37.1426" width="2.85714" height="2.85714" transform="rotate(-180 37.1445 37.1426)" fill="#40434F"/>
<rect x="40" y="40" width="14.2857" height="2.85714" transform="rotate(-180 40 40)" fill="#40434F"/>
<rect x="40" y="37.1426" width="2.85714" height="11.4286" transform="rotate(-180 40 37.1426)" fill="#40434F"/>
<rect x="28.5703" y="40" width="2.85714" height="2.85714" transform="rotate(-180 28.5703 40)" fill="#40434F"/>
<rect x="37.1445" y="34.2861" width="2.85714" height="2.85714" transform="rotate(-180 37.1445 34.2861)" fill="#40434F"/>
<rect x="37.1445" y="31.4287" width="2.85714" height="2.85714" transform="rotate(-180 37.1445 31.4287)" fill="#40434F"/>
<rect x="31.4297" y="34.2861" width="2.85714" height="2.85714" transform="rotate(-180 31.4297 34.2861)" fill="#40434F"/>
<rect x="28.5703" y="31.4287" width="2.85714" height="2.85714" transform="rotate(-180 28.5703 31.4287)" fill="#40434F"/>
<rect x="28.5703" y="31.4287" width="2.85714" height="2.85714" transform="rotate(-180 28.5703 31.4287)" fill="#40434F"/>
<rect x="28.5703" y="31.4287" width="2.85714" height="2.85714" transform="rotate(-180 28.5703 31.4287)" fill="#40434F"/>
<rect x="25.7148" y="28.5713" width="2.85714" height="2.85714" transform="rotate(-180 25.7148 28.5713)" fill="#40434F"/>
<rect x="22.8555" y="25.7139" width="2.85714" height="2.85714" transform="rotate(-180 22.8555 25.7139)" fill="#40434F"/>
<rect x="25.7148" y="22.8574" width="2.85714" height="2.85714" transform="rotate(-180 25.7148 22.8574)" fill="#40434F"/>
<rect x="17.1445" y="22.8574" width="5.71429" height="5.71429" transform="rotate(-90 17.1445 22.8574)" fill="#40434F"/>
<rect x="14.2852" y="25.7139" width="2.85714" height="2.85714" transform="rotate(-90 14.2852 25.7139)" fill="#40434F"/>
<rect x="14.2852" y="28.5713" width="2.85714" height="2.85714" transform="rotate(-90 14.2852 28.5713)" fill="#40434F"/>
<rect x="11.4297" y="28.5713" width="2.85714" height="2.85714" transform="rotate(-90 11.4297 28.5713)" fill="#40434F"/>
<rect x="11.4297" y="31.4287" width="2.85714" height="2.85714" transform="rotate(-90 11.4297 31.4287)" fill="#40434F"/>
<rect x="11.4297" y="28.5713" width="2.85714" height="2.85714" transform="rotate(-90 11.4297 28.5713)" fill="#40434F"/>
<rect x="11.4297" y="31.4287" width="2.85714" height="2.85714" transform="rotate(-90 11.4297 31.4287)" fill="#40434F"/>
<rect x="11.4297" y="28.5713" width="2.85714" height="2.85714" transform="rotate(-90 11.4297 28.5713)" fill="#40434F"/>
<rect x="11.4297" y="31.4287" width="2.85714" height="2.85714" transform="rotate(-90 11.4297 31.4287)" fill="#40434F"/>
<rect x="8.57031" y="31.4287" width="2.85714" height="2.85714" transform="rotate(-90 8.57031 31.4287)" fill="#40434F"/>
<rect x="8.57031" y="34.2861" width="2.85714" height="2.85714" transform="rotate(-90 8.57031 34.2861)" fill="#40434F"/>
<rect x="8.57031" y="31.4287" width="2.85714" height="2.85714" transform="rotate(-90 8.57031 31.4287)" fill="#40434F"/>
<rect x="8.57031" y="34.2861" width="2.85714" height="2.85714" transform="rotate(-90 8.57031 34.2861)" fill="#40434F"/>
<rect x="5.71484" y="34.2861" width="2.85714" height="2.85714" transform="rotate(-90 5.71484 34.2861)" fill="#40434F"/>
<rect x="5.71484" y="31.4287" width="2.85714" height="2.85714" transform="rotate(-90 5.71484 31.4287)" fill="#40434F"/>
<rect x="2.85547" y="31.4287" width="2.85714" height="2.85714" transform="rotate(-90 2.85547 31.4287)" fill="#40434F"/>
<rect x="2.85547" y="34.2861" width="2.85714" height="2.85714" transform="rotate(-90 2.85547 34.2861)" fill="#40434F"/>
<rect x="2.85547" y="37.1426" width="2.85714" height="2.85714" transform="rotate(-90 2.85547 37.1426)" fill="#40434F"/>
<rect y="40" width="14.2857" height="2.85714" transform="rotate(-90 0 40)" fill="#40434F"/>
<rect x="2.85547" y="40" width="2.85714" height="11.4286" transform="rotate(-90 2.85547 40)" fill="#40434F"/>
<rect y="28.5713" width="2.85714" height="2.85714" transform="rotate(-90 0 28.5713)" fill="#40434F"/>
<rect x="5.71484" y="37.1426" width="2.85714" height="2.85714" transform="rotate(-90 5.71484 37.1426)" fill="#40434F"/>
<rect x="8.57031" y="37.1426" width="2.85714" height="2.85714" transform="rotate(-90 8.57031 37.1426)" fill="#40434F"/>
<rect x="5.71484" y="31.4287" width="2.85714" height="2.85714" transform="rotate(-90 5.71484 31.4287)" fill="#40434F"/>
<rect x="8.57031" y="28.5713" width="2.85714" height="2.85714" transform="rotate(-90 8.57031 28.5713)" fill="#40434F"/>
<rect x="8.57031" y="28.5713" width="2.85714" height="2.85714" transform="rotate(-90 8.57031 28.5713)" fill="#40434F"/>
<rect x="8.57031" y="28.5713" width="2.85714" height="2.85714" transform="rotate(-90 8.57031 28.5713)" fill="#40434F"/>
<rect x="11.4297" y="25.7139" width="2.85714" height="2.85714" transform="rotate(-90 11.4297 25.7139)" fill="#40434F"/>
<rect x="14.2852" y="22.8574" width="2.85714" height="2.85714" transform="rotate(-90 14.2852 22.8574)" fill="#40434F"/>
<rect x="17.1445" y="25.7139" width="2.85714" height="2.85714" transform="rotate(-90 17.1445 25.7139)" fill="#40434F"/>
</svg>
