<svg width="1920" height="164" viewBox="0 0 1920 164" fill="none" xmlns="http://www.w3.org/2000/svg">
<rect width="1920" height="164" fill="#71AEFC"/>
<rect x="6" y="6" width="1908" height="152" stroke="#3F6AA8" stroke-width="4"/>
<g clip-path="url(#clip0_1262_7650)">
<rect width="48" height="36" transform="translate(0 64)" fill="#71AEFC"/>
<path d="M-3.16797 71.6523C-4.59782 72.9817 -6.56886 74.7597 -8.72559 76.542C-10.8743 78.3176 -13.2476 80.1318 -15.4756 81.5127C-15.7468 81.6808 -16.0185 81.8432 -16.2891 82C-16.0185 82.1568 -15.7468 82.3192 -15.4756 82.4873C-13.2476 83.8682 -10.8743 85.6824 -8.72559 87.458C-6.56886 89.2403 -4.59782 91.0183 -3.16797 92.3477C-2.87555 92.6195 -2.6052 92.8732 -2.36035 93.1045L7.34375 82L-2.36035 70.8945C-2.60533 71.126 -2.87536 71.3803 -3.16797 71.6523Z" stroke="#3F6AA8" stroke-width="4"/>
<path d="M23.4023 70.6113C23.8367 70.9428 24.3637 71.3427 24.9678 71.792C26.7517 73.1188 29.2105 74.8916 31.8975 76.668C34.5773 78.4396 37.5218 80.2401 40.2734 81.6045C40.5467 81.74 40.8224 81.8706 41.0977 82C40.8224 82.1294 40.5467 82.26 40.2734 82.3955C37.5218 83.7599 34.5773 85.5604 31.8975 87.332C29.2105 89.1084 26.7517 90.8812 24.9678 92.208C24.3639 92.6571 23.8366 93.0563 23.4023 93.3877L10.9619 82L23.4023 70.6113Z" stroke="#3F6AA8" stroke-width="4"/>
</g>
<g clip-path="url(#clip1_1262_7650)">
<rect width="48" height="36" transform="matrix(-1 0 0 1 1920 64)" fill="#71AEFC"/>
<path d="M1923.17 71.6523C1924.6 72.9817 1926.57 74.7597 1928.73 76.542C1930.87 78.3176 1933.25 80.1318 1935.48 81.5127C1935.75 81.6808 1936.02 81.8432 1936.29 82C1936.02 82.1568 1935.75 82.3192 1935.48 82.4873C1933.25 83.8682 1930.87 85.6824 1928.73 87.458C1926.57 89.2403 1924.6 91.0183 1923.17 92.3477C1922.88 92.6195 1922.61 92.8732 1922.36 93.1045L1912.66 82L1922.36 70.8945C1922.61 71.126 1922.88 71.3803 1923.17 71.6523Z" stroke="#3F6AA8" stroke-width="4"/>
<path d="M1896.6 70.6113C1896.16 70.9428 1895.64 71.3427 1895.03 71.792C1893.25 73.1188 1890.79 74.8916 1888.1 76.668C1885.42 78.4396 1882.48 80.2401 1879.73 81.6045C1879.45 81.74 1879.18 81.8706 1878.9 82C1879.18 82.1294 1879.45 82.26 1879.73 82.3955C1882.48 83.7599 1885.42 85.5604 1888.1 87.332C1890.79 89.1084 1893.25 90.8812 1895.03 92.208C1895.64 92.6571 1896.16 93.0563 1896.6 93.3877L1909.04 82L1896.6 70.6113Z" stroke="#3F6AA8" stroke-width="4"/>
</g>
<defs>
<clipPath id="clip0_1262_7650">
<rect width="48" height="36" fill="white" transform="translate(0 64)"/>
</clipPath>
<clipPath id="clip1_1262_7650">
<rect width="48" height="36" fill="white" transform="matrix(-1 0 0 1 1920 64)"/>
</clipPath>
</defs>
</svg>
