<svg width="1100" height="56" viewBox="0 0 1100 56" fill="none" xmlns="http://www.w3.org/2000/svg">
<rect width="1100" height="56" fill="#71AEFC"/>
<rect x="6" y="6" width="1088" height="44" stroke="#3F6AA8" stroke-width="4"/>
<g clip-path="url(#clip0_1225_7503)">
<rect width="48" height="36" transform="translate(0 10)" fill="#71AEFC"/>
<path d="M-3.16797 17.6523C-4.59782 18.9817 -6.56886 20.7597 -8.72559 22.542C-10.8743 24.3176 -13.2476 26.1318 -15.4756 27.5127C-15.7468 27.6808 -16.0185 27.8432 -16.2891 28C-16.0185 28.1568 -15.7468 28.3192 -15.4756 28.4873C-13.2476 29.8682 -10.8743 31.6824 -8.72559 33.458C-6.56886 35.2403 -4.59782 37.0183 -3.16797 38.3477C-2.87555 38.6195 -2.6052 38.8732 -2.36035 39.1045L7.34375 28L-2.36035 16.8945C-2.60533 17.126 -2.87536 17.3803 -3.16797 17.6523Z" stroke="#3F6AA8" stroke-width="4"/>
<path d="M23.4023 16.6113C23.8367 16.9428 24.3637 17.3427 24.9678 17.792C26.7517 19.1188 29.2105 20.8916 31.8975 22.668C34.5773 24.4396 37.5218 26.2401 40.2734 27.6045C40.5467 27.74 40.8224 27.8706 41.0977 28C40.8224 28.1294 40.5467 28.26 40.2734 28.3955C37.5218 29.7599 34.5773 31.5604 31.8975 33.332C29.2105 35.1084 26.7517 36.8812 24.9678 38.208C24.3639 38.6571 23.8366 39.0563 23.4023 39.3877L10.9619 28L23.4023 16.6113Z" stroke="#3F6AA8" stroke-width="4"/>
</g>
<g clip-path="url(#clip1_1225_7503)">
<rect width="48" height="36" transform="matrix(-1 0 0 1 1100 10)" fill="#71AEFC"/>
<path d="M1103.17 17.6523C1104.6 18.9817 1106.57 20.7597 1108.73 22.542C1110.87 24.3176 1113.25 26.1318 1115.48 27.5127C1115.75 27.6808 1116.02 27.8432 1116.29 28C1116.02 28.1568 1115.75 28.3192 1115.48 28.4873C1113.25 29.8682 1110.87 31.6824 1108.73 33.458C1106.57 35.2403 1104.6 37.0183 1103.17 38.3477C1102.88 38.6195 1102.61 38.8732 1102.36 39.1045L1092.66 28L1102.36 16.8945C1102.61 17.126 1102.88 17.3803 1103.17 17.6523Z" stroke="#3F6AA8" stroke-width="4"/>
<path d="M1076.6 16.6113C1076.16 16.9428 1075.64 17.3427 1075.03 17.792C1073.25 19.1188 1070.79 20.8916 1068.1 22.668C1065.42 24.4396 1062.48 26.2401 1059.73 27.6045C1059.45 27.74 1059.18 27.8706 1058.9 28C1059.18 28.1294 1059.45 28.26 1059.73 28.3955C1062.48 29.7599 1065.42 31.5604 1068.1 33.332C1070.79 35.1084 1073.25 36.8812 1075.03 38.208C1075.64 38.6571 1076.16 39.0563 1076.6 39.3877L1089.04 28L1076.6 16.6113Z" stroke="#3F6AA8" stroke-width="4"/>
</g>
<defs>
<clipPath id="clip0_1225_7503">
<rect width="48" height="36" fill="white" transform="translate(0 10)"/>
</clipPath>
<clipPath id="clip1_1225_7503">
<rect width="48" height="36" fill="white" transform="matrix(-1 0 0 1 1100 10)"/>
</clipPath>
</defs>
</svg>
