<svg width="688" height="670" viewBox="0 0 688 670" fill="none" xmlns="http://www.w3.org/2000/svg">
<mask id="mask0_1223_7231" style="mask-type:alpha" maskUnits="userSpaceOnUse" x="0" y="0" width="688" height="670">
<path d="M688 670H0V0H688V670ZM344 300C319.699 300 300 319.699 300 344C300 368.301 319.699 388 344 388C368.301 388 388 368.301 388 344C388 319.699 368.301 300 344 300Z" fill="#C36B6B"/>
</mask>
<g mask="url(#mask0_1223_7231)">
<path opacity="0.1" fill-rule="evenodd" clip-rule="evenodd" d="M469.395 106.326C501.648 90.217 564.72 96.178 601.38 113.094C567.771 161.217 523.797 200.315 442.783 187.682C440.63 182.059 440.551 174.761 441.81 166.383C474.338 173.106 512.464 169.028 529.526 153.096C531.698 151.068 533.679 148.236 534.791 145.939C548.222 118.155 503.894 116.067 486.33 122.873C481.708 116.533 475.378 111.57 469.394 106.324M233.026 98.9781C240.505 63.7889 284.501 18.3352 320.624 0.299616C337.399 56.5043 340.636 115.167 280.222 170.45C274.472 168.623 268.7 164.134 262.916 157.93C288.468 136.762 309.042 104.493 307.19 81.2608C306.954 78.3026 305.969 74.9934 304.861 72.694C291.451 44.8999 262.174 78.1575 256.564 96.0925C248.711 95.7439 240.873 97.5837 233.03 98.9786M79.8967 278.677C56.9699 250.906 48.7636 188.265 57.1442 148.86C111.673 170.826 159.684 204.876 165.361 286.445C160.344 289.789 153.226 291.49 144.755 292.13C144.089 259.011 131.618 222.852 112.246 209.812C109.779 208.152 106.571 206.857 104.077 206.287C73.9244 199.412 81.7465 242.971 92.3087 258.53C87.1393 264.435 83.6946 271.692 79.898 278.677M125.314 510.104C89.2457 510.663 35.0153 478.004 9.34469 446.902C60.5642 418.086 117.197 401.886 184.689 448.317C184.182 454.314 181.077 460.924 176.298 467.928C149.917 447.797 113.791 434.976 91.4882 441.949C88.6486 442.837 85.6322 444.531 83.6308 446.119C59.4408 465.341 98.4704 486.401 117.255 487.867C118.661 495.579 122.204 502.79 125.313 510.104M335.079 618.992C313.029 647.46 253.612 669.376 213.218 670C222.56 612.104 245.168 557.85 323.653 534.178C328.039 538.312 331.285 544.854 333.796 552.947C301.565 560.963 268.988 581.134 260.551 602.87C259.477 605.638 258.925 609.045 258.922 611.596C258.911 642.439 299.758 625.142 312.619 611.411C319.543 615.123 327.405 616.857 335.078 618.993M551.236 523.347C559.808 558.287 539.946 618.277 515.249 650.153C475.68 606.77 447.241 555.318 477.616 479.369C483.592 478.527 490.745 480.075 498.656 483.163C484.845 513.29 480.348 551.264 492.128 571.393C493.628 573.956 495.955 576.512 497.953 578.104C522.129 597.344 534.034 554.714 531.288 536.125C538.515 533.041 544.776 527.992 551.236 523.342M611.013 295.186C643.753 310.288 678.405 363.174 688 402.307C629.314 406.108 571.241 396.201 530.638 325.169C533.704 319.985 539.377 315.373 546.73 311.13C561.74 340.682 588.709 367.863 611.837 371.229C614.782 371.658 618.236 371.437 620.731 370.872C650.888 364.02 624.888 328.159 608.602 318.712C610.69 311.155 610.635 303.126 611.017 295.19M606.179 274.758C602.278 267.831 598.725 260.625 593.468 254.799C603.795 239.084 610.963 195.411 580.917 202.735C578.432 203.342 575.243 204.686 572.802 206.382C553.627 219.71 541.7 256.05 541.531 289.178C533.052 288.664 525.909 287.069 520.841 283.8C525.294 202.156 572.792 167.392 626.98 144.616C635.951 183.891 628.685 246.648 606.178 274.759M450.365 97.364C442.502 96.0863 434.637 94.3636 426.79 94.8294C420.909 76.9797 391.138 44.1648 378.145 72.154C377.072 74.4696 376.137 77.7934 375.945 80.7548C374.439 104.013 395.495 135.971 421.361 156.754C415.671 163.044 409.967 167.619 404.245 169.531C343.01 115.156 345.365 56.4517 361.294 0C397.681 17.4937 442.354 62.2891 450.362 97.3595M214.132 108.231C208.227 113.565 201.973 118.622 197.446 125.03C179.784 118.487 135.493 121.236 149.338 148.816C150.485 151.097 152.507 153.898 154.71 155.894C172.007 171.57 210.191 175.078 242.615 167.871C243.999 176.229 244.029 183.528 241.961 189.182C161.149 203.02 116.589 164.582 82.2639 116.968C118.667 99.5072 181.642 92.6062 214.132 108.232M75.3686 299.182C75.8692 307.112 75.9351 315.141 78.1365 322.665C61.9942 332.355 36.5343 368.602 66.7915 375.001C69.2943 375.529 72.7516 375.698 75.6899 375.226C98.7645 371.514 125.322 343.933 139.89 314.16C147.306 318.291 153.047 322.818 156.191 327.956C116.655 399.588 58.7363 410.362 0 407.435C9.00676 368.167 42.8586 314.77 75.3699 299.18M138.566 526.419C145.095 530.972 151.431 535.927 158.703 538.902C156.236 557.528 168.779 599.977 192.663 580.378C194.638 578.756 196.926 576.167 198.388 573.582C209.865 553.278 204.798 515.375 190.537 485.46C198.401 482.254 205.53 480.6 211.518 481.353C243.03 556.837 215.365 608.708 176.45 652.676C151.279 621.172 130.518 561.485 138.566 526.419ZM356.134 618.833C363.775 616.582 371.61 614.731 378.477 610.917C391.543 624.454 432.645 641.14 432.17 610.301C432.129 607.75 431.526 604.351 430.41 601.6C421.647 579.993 388.771 560.311 356.422 552.778C358.811 544.648 361.96 538.059 366.283 533.86C445.113 556.357 468.533 610.265 478.746 668.019C438.35 668.001 378.608 646.973 356.133 618.837M564.241 506.834C567.24 499.474 570.674 492.211 571.964 484.479C590.725 482.733 629.433 461.093 604.958 442.236C602.933 440.677 599.892 439.028 597.039 438.183C574.635 431.543 538.706 444.903 512.628 465.424C507.744 458.493 504.541 451.93 503.944 445.941C570.735 398.509 627.602 413.862 679.246 441.91C654.046 473.392 600.311 506.858 564.239 506.833M449.55 123.656C461.585 132.169 470.895 142.958 474.841 152.504C476.231 155.873 476.801 161.168 477.527 163.705C485.725 163.989 492.179 162.127 499.087 160.827C493.101 136.995 479.157 118.147 458.538 104.68C435.012 97.3507 411.556 98.5818 389.295 109.106C392.675 115.254 395.332 121.407 400.758 127.541C403.185 126.489 407.649 123.565 411.141 122.496C421.041 119.472 435.311 119.79 449.549 123.654L449.55 123.656ZM585.05 290.515C585.88 305.206 583.225 319.191 578.2 328.219C576.426 331.403 572.63 335.149 571.093 337.297C575.982 343.866 581.465 347.736 586.792 352.311C601.745 332.785 607.829 310.164 605.53 285.692C596.608 262.781 581.019 245.262 558.888 234.467C556.175 240.935 553.007 246.842 551.581 254.898C553.92 256.133 558.995 257.79 562.01 259.847C570.554 265.68 579.202 277.004 585.05 290.513L585.05 290.515ZM538.711 500.192C527.709 509.998 515.089 516.648 504.878 518.359C501.275 518.962 495.972 518.337 493.329 518.478C491.227 526.385 491.612 533.073 491.346 540.08C515.978 539.562 537.509 530.201 555.26 513.152C567.661 491.911 571.677 468.835 566.341 444.849C559.579 446.768 552.972 447.981 545.767 451.892C546.256 454.485 548.122 459.476 548.389 463.108C549.143 473.406 545.656 487.208 538.711 500.191L538.711 500.192ZM345.423 594.796C330.875 592.333 317.793 586.64 310.085 579.746C307.366 577.313 304.549 572.789 302.79 570.816C295.28 574.108 290.276 578.577 284.618 582.738C300.381 601.619 321.144 612.568 345.58 615.779C369.965 612.204 390.563 600.947 406.038 581.833C400.317 577.756 395.247 573.362 387.688 570.183C385.96 572.181 383.21 576.747 380.529 579.22C372.925 586.229 359.929 592.116 345.42 594.795L345.423 594.796ZM150.737 503.085C143.598 490.208 139.904 476.459 140.504 466.151C140.716 462.515 142.507 457.498 142.957 454.897C135.694 451.094 129.07 449.98 122.279 448.162C117.304 472.224 121.665 495.238 134.384 516.289C152.39 533.072 174.058 542.11 198.697 542.26C198.326 535.259 198.61 528.566 196.39 520.691C193.745 520.59 188.452 521.293 184.84 520.744C174.604 519.186 161.886 512.725 150.739 503.084L150.737 503.085ZM101.256 294.125C106.901 280.53 115.378 269.078 123.833 263.118C126.817 261.017 131.868 259.284 134.187 258.014C132.64 249.981 129.384 244.122 126.575 237.694C104.608 248.818 89.2829 266.567 80.7053 289.607C78.7742 314.109 85.1969 336.637 100.44 355.937C105.699 351.282 111.123 347.331 115.913 340.69C114.344 338.565 110.492 334.877 108.67 331.719C103.511 322.767 100.646 308.823 101.255 294.121L101.256 294.125ZM234.241 125.264C248.42 121.188 262.684 120.657 272.628 123.533C276.136 124.549 280.643 127.407 283.085 128.423C288.419 122.208 290.983 116.016 294.271 109.819C271.854 99.6277 248.385 98.7471 224.969 106.427C204.555 120.198 190.895 139.252 185.267 163.171C192.195 164.369 198.675 166.135 206.868 165.728C207.556 163.18 208.046 157.877 209.386 154.488C213.187 144.884 222.334 133.957 234.241 125.265L234.241 125.264ZM678.868 421.06C646.959 404.06 613.686 393.227 576.824 398.635C607.991 418.993 642.745 423.111 678.868 421.06ZM494.857 654.719C488.291 619.242 476.04 586.551 448.815 561.183C452.286 598.174 470.728 627.839 494.857 654.719ZM196.93 656.941C220.651 629.703 238.646 599.769 241.56 562.727C214.722 588.496 202.962 621.368 196.93 656.941ZM9.43308 426.055C45.5794 427.566 80.2677 422.93 111.129 402.11C74.19 397.253 41.0836 408.58 9.43308 426.055ZM73.5571 135.919C94.9092 165.042 120.174 189.197 155.738 200.273C136.516 168.446 106.992 149.7 73.5571 135.919ZM341.014 5.01387C331.493 39.8183 328.306 74.5767 341.795 109.207C354.764 74.3774 351.055 39.6738 341.014 5.01387ZM610.406 131.912C577.182 146.19 547.945 165.375 529.203 197.484C564.597 185.878 589.493 161.349 610.406 131.912ZM511.23 307.896C501.792 320.345 496.282 334.799 493.102 346.053C499.648 345.818 505.391 349.213 512.071 348.369C516.483 323.631 553.08 292.131 579.21 304.844C579.822 300.558 580.221 296.224 579.892 291.73C578.171 287.565 575.87 283.866 573.399 280.306C555.732 303.332 508.868 291.482 493.826 271.325C487.473 273.549 483.859 279.147 477.899 281.858C485.792 290.504 497.204 300.974 511.229 307.898L511.23 307.896ZM479.059 453.458C463.415 453.861 448.646 458.577 437.84 463.115C442.105 468.072 443.024 474.666 447.851 479.347C469.997 467.363 517.514 476.254 523.838 504.553C527.58 502.358 531.227 499.967 534.545 496.909C536.738 492.969 538.203 488.869 539.454 484.724C510.385 485.306 490.456 441.383 496.881 417.087C491.176 413.521 484.534 414.194 478.693 411.238C476.835 422.782 475.741 438.207 479.057 453.456L479.059 453.458ZM344.873 519.135C334.803 507.189 321.897 498.615 311.602 493.02C310.375 499.436 305.777 504.264 305.117 510.946C328.321 520.74 350.978 563.327 332.732 585.902C336.786 587.451 340.934 588.803 345.401 589.484C349.857 588.737 353.985 587.323 358.015 585.714C339.434 563.414 361.448 520.493 384.503 510.351C383.742 503.68 379.072 498.921 377.749 492.524C367.539 498.273 354.764 507.038 344.873 519.132V519.135ZM209.717 455.468C212.804 440.169 211.48 424.762 209.448 413.245C203.653 416.288 197.001 415.714 191.35 419.365C198.138 443.562 178.873 487.776 149.798 487.63C151.111 491.756 152.638 495.834 154.889 499.74C158.253 502.749 161.935 505.085 165.71 507.224C171.609 478.834 218.987 469.235 241.311 480.888C246.067 476.135 246.887 469.528 251.077 464.508C240.204 460.132 225.367 455.637 209.718 455.467L209.717 455.468ZM175.366 310.4C189.286 303.268 200.54 292.629 208.302 283.866C202.302 281.245 198.605 275.701 192.219 273.571C177.481 293.95 130.799 306.499 112.788 283.739C110.372 287.335 108.127 291.068 106.467 295.259C106.206 299.757 106.67 304.084 107.347 308.361C133.283 295.259 170.349 326.212 175.132 350.881C181.824 351.625 187.516 348.145 194.064 348.282C190.716 337.077 184.99 322.706 175.365 310.4L175.366 310.4ZM267.689 193.171C281.96 199.576 297.318 201.717 309.028 202.304C307.342 195.993 309.383 189.654 307.071 183.348C281.904 184.563 242.96 155.994 249.578 127.763C245.251 128.121 240.925 128.698 236.605 130.017C232.915 132.618 229.811 135.678 226.881 138.872C253.324 150.924 252.166 199.122 235.806 218.229C239.395 223.911 245.672 226.178 249.648 231.369C256.346 221.772 264.042 208.347 267.691 193.172L267.689 193.171ZM417.16 192.056C421.036 207.176 428.933 220.484 435.774 229.979C439.671 224.73 445.914 222.369 449.417 216.635C432.772 197.772 430.891 149.597 457.151 137.152C454.173 134.002 451.023 130.989 447.295 128.444C442.955 127.189 438.621 126.677 434.29 126.383C441.328 154.514 402.818 183.659 377.636 182.822C375.419 189.162 377.555 195.47 375.965 201.806C387.664 201.044 402.989 198.674 417.162 192.057L417.16 192.056ZM452.709 246.527C469.802 233.123 484.681 216.993 494.279 194.359C487.139 195.377 479.528 195.816 471.579 195.836C467.462 205.325 457.231 215.774 448.614 224.259C447.048 225.805 440.094 231.736 440.029 232.354C439.84 234.237 445.166 238.131 446.37 239.441C448.974 242.279 450.495 244.368 452.709 246.528M332.557 199.418C332.706 177.735 329.336 156.078 317.573 134.483C313.919 140.684 309.519 146.891 304.578 153.101C309.451 162.227 311.264 176.719 312.544 188.727C312.779 190.912 313.095 200.031 313.539 200.467C314.897 201.788 321.27 200.064 323.049 199.942C326.897 199.681 329.483 199.798 332.557 199.418ZM220.708 263.718C203.8 250.083 184.719 239.207 160.451 234.913C163.035 241.628 165.158 248.929 166.947 256.653C177.14 258.544 189.632 266.166 199.846 272.655C201.705 273.833 209.052 279.273 209.67 279.199C211.553 278.964 214.175 272.92 215.188 271.458C217.383 268.295 219.087 266.351 220.706 263.718M201.385 391.009C180.152 395.69 159.729 403.786 141.233 420.026C148.109 422.199 155.157 425.095 162.328 428.517C170.166 421.749 183.931 416.762 195.387 412.845C197.47 412.13 206.316 409.794 206.643 409.266C207.632 407.651 204.529 401.839 204.014 400.137C202.902 396.454 202.441 393.914 201.386 391.009M289.14 485.438C279.571 504.91 273.185 525.88 274.386 550.423C280.376 546.418 287.041 542.729 294.195 539.271C293.775 528.941 298.447 515.1 302.519 503.727C303.257 501.657 306.941 493.304 306.731 492.72C306.082 490.942 299.589 489.738 297.934 489.078C294.353 487.648 292.074 486.424 289.139 485.436M417.887 475.894C427.188 495.494 439.648 513.549 459.642 527.916C460.236 520.748 461.499 513.252 463.249 505.518C454.888 499.405 446.949 487.132 440.57 476.867C439.408 475.001 435.156 466.921 434.566 466.72C432.767 466.118 427.775 470.429 426.226 471.308C422.873 473.208 420.492 474.222 417.887 475.894M490.679 369.569C511.846 374.538 533.768 376.081 557.499 369.451C552.249 364.519 547.16 358.859 542.188 352.674C532.181 355.381 517.609 353.919 505.584 352.491C503.396 352.234 494.41 350.511 493.885 350.846C492.291 351.872 492.558 358.452 492.282 360.208C491.681 364.007 490.991 366.495 490.678 369.569M465.181 261.895C466.84 264.505 468.573 266.422 470.814 269.552C471.85 270.999 474.562 277.003 476.448 277.21C477.068 277.275 484.332 271.726 486.174 270.52C496.289 263.88 508.665 256.072 518.829 254.029C520.501 246.279 522.515 238.948 524.997 232.195C500.799 236.85 481.883 248.009 465.182 261.895M352.383 199.271C355.463 199.604 358.047 199.449 361.898 199.653C363.679 199.748 370.077 201.377 371.415 200.035C371.852 199.593 372.031 190.47 372.234 188.282C373.334 176.256 374.929 161.739 379.664 152.542C374.631 146.406 370.138 140.265 366.391 134.119C354.954 155.887 351.909 177.594 352.383 199.273M232.953 248.17C235.135 245.977 236.624 243.865 239.186 240.99C240.37 239.661 245.637 235.688 245.42 233.809C245.345 233.192 238.304 227.364 236.715 225.843C227.972 217.487 217.584 207.191 213.326 197.765C205.377 197.864 197.76 197.538 190.606 196.627C200.542 219.116 215.661 235.023 232.952 248.171M196.825 371.77C196.465 368.701 195.738 366.224 195.081 362.434C194.778 360.682 194.946 354.099 193.337 353.097C192.807 352.77 183.848 354.627 181.664 354.917C169.662 356.523 155.113 358.203 145.067 355.646C140.189 361.905 135.185 367.639 130.01 372.649C153.837 378.924 175.736 377.054 196.826 371.77M271.204 476.998C268.574 475.365 266.179 474.387 262.797 472.537C261.235 471.681 256.179 467.445 254.389 468.074C253.803 468.283 249.673 476.426 248.538 478.309C242.315 488.669 234.56 501.058 226.292 507.295C228.157 515.001 229.533 522.478 230.235 529.636C250.011 514.972 262.198 496.734 271.204 476.999M400.082 484.619C397.162 485.651 394.902 486.909 391.343 488.392C389.698 489.076 383.224 490.377 382.602 492.165C382.401 492.752 386.209 501.049 386.978 503.108C391.22 514.419 396.099 528.189 395.835 538.524C403.04 541.874 409.76 545.463 415.81 549.379C416.642 524.818 409.942 503.945 400.082 484.619M486.412 388.893C485.401 391.813 484.978 394.36 483.922 398.059C483.433 399.768 480.416 405.626 481.43 407.226C481.765 407.749 490.645 409.953 492.739 410.636C504.252 414.382 518.09 419.163 526.029 425.814C533.147 422.285 540.151 419.284 546.993 417.009C528.256 401.046 507.713 393.257 486.414 388.893M542.009 390.986C530.906 383.525 518.854 378.876 508.676 376.31C508.762 378.779 508.329 381.134 507.803 383.469C507.296 385.807 506.696 388.125 505.577 390.329C515.893 392.267 528.79 393.101 542.009 390.986ZM433.107 529.269C432.033 515.962 428.164 503.667 423.83 494.133C421.948 495.739 419.832 496.87 417.674 497.915C415.524 498.978 413.333 499.956 410.907 500.458C415.82 509.709 423.207 520.282 433.107 529.269ZM256.789 530.585C266.553 521.451 273.781 510.768 278.554 501.445C276.121 500.979 273.915 500.034 271.75 499.004C269.576 497.991 267.443 496.892 265.537 495.313C261.347 504.911 257.662 517.262 256.789 530.585L256.789 530.585ZM145.825 393.942C159.075 395.86 171.957 394.834 182.243 392.742C181.09 390.555 180.456 388.247 179.914 385.916C179.353 383.59 178.885 381.242 178.934 378.772C168.796 381.489 156.815 386.317 145.825 393.942ZM183.774 222.238C190.532 233.763 199.367 243.167 207.421 249.882C208.417 247.62 209.832 245.686 211.321 243.81C212.795 241.922 214.344 240.093 216.312 238.592C207.861 232.383 196.605 226.052 183.774 222.238L183.774 222.238ZM342.06 144.769C337.237 157.224 335.373 169.975 335.129 180.44C337.524 179.807 339.923 179.704 342.322 179.696C344.721 179.668 347.121 179.735 349.524 180.333C349.124 169.873 347.069 157.15 342.06 144.769L342.06 144.769ZM501.488 219.872C488.716 223.877 477.557 230.374 469.2 236.709C471.189 238.181 472.765 239.987 474.268 241.853C475.785 243.706 477.229 245.619 478.259 247.865C486.211 241.031 494.904 231.497 501.488 219.872ZM399.096 230.194C407.2 235.237 416.786 242.35 424 249.96C425.689 251.742 429.973 258.954 431.412 259.086C433.345 259.264 437.349 253.837 438.52 252.766C441.51 250.024 443.448 248.641 445.627 246.445C435.186 233.223 423.137 221.301 407.635 212.166C390.715 206.029 373.827 204.32 356.954 204.674C356.636 207.748 356.797 210.119 356.571 214.164C356.485 215.746 354.824 222.276 356.19 223.652C357.207 224.676 365.513 223.396 367.966 223.565C378.444 224.289 390.041 227.154 399.095 230.194L399.096 230.194ZM470.077 317.6C471.177 327.062 471.576 338.97 470.108 349.34C469.763 351.768 466.781 359.604 467.574 360.808C468.64 362.427 475.391 362.164 476.961 362.41C480.975 363.031 483.268 363.68 486.348 364.01C490.205 347.625 492.04 330.798 489.537 313.019C483.8 296 474.611 281.768 463.811 268.836C461.204 270.505 459.445 272.109 456.133 274.454C454.839 275.374 448.683 278.151 448.456 280.074C448.287 281.505 454.47 287.183 455.867 289.2C461.832 297.82 466.817 308.648 470.078 317.602L470.077 317.6ZM445.803 427.434C439.07 434.191 429.982 441.927 420.936 447.248C418.818 448.493 410.814 451.053 410.364 452.422C409.76 454.262 414.175 459.362 414.961 460.739C416.977 464.256 417.897 466.448 419.56 469.055C434.811 461.846 449.148 452.785 461.528 439.748C471.294 424.664 476.723 408.627 480.13 392.145C477.196 391.152 474.842 390.781 470.938 389.661C469.41 389.226 463.395 386.158 461.745 387.18C460.518 387.94 459.921 396.301 459.21 398.647C456.172 408.672 450.79 419.31 445.803 427.435L445.803 427.434ZM344.552 476.989C335.056 475.952 323.326 473.691 313.513 469.956C311.217 469.081 304.219 464.437 302.865 464.94C301.045 465.616 299.8 472.238 299.21 473.71C297.71 477.474 296.565 479.558 295.557 482.48C310.718 489.875 326.761 495.403 344.702 496.927C362.618 495.136 378.576 489.37 393.625 481.749C392.573 478.843 391.397 476.776 389.841 473.034C389.229 471.572 387.884 464.969 386.054 464.32C384.693 463.838 377.766 468.585 375.483 469.494C365.727 473.376 354.032 475.812 344.553 476.99L344.552 476.989ZM242.571 428.95C237.463 420.9 231.922 410.344 228.733 400.366C227.987 398.029 227.265 389.679 226.026 388.937C224.361 387.94 218.393 391.097 216.872 391.555C212.985 392.733 210.637 393.14 207.718 394.176C211.372 410.607 217.041 426.561 227.032 441.499C239.607 454.35 254.078 463.196 269.437 470.176C271.061 467.544 271.948 465.338 273.911 461.792C274.677 460.404 279.015 455.239 278.383 453.407C277.913 452.045 269.872 449.605 267.735 448.391C258.609 443.206 249.407 435.607 242.573 428.951L242.571 428.95ZM216.652 319.488C219.778 310.487 224.6 299.586 230.435 290.878C231.802 288.84 237.899 283.07 237.708 281.642C237.452 279.723 231.255 277.038 229.948 276.137C226.601 273.842 224.818 272.264 222.186 270.635C211.582 283.728 202.608 298.095 197.126 315.198C194.89 333.014 196.977 349.811 201.079 366.135C204.155 365.759 206.437 365.076 210.442 364.395C212.008 364.126 218.762 364.288 219.804 362.654C220.579 361.438 217.479 353.647 217.098 351.225C215.474 340.877 215.695 328.965 216.652 319.487L216.652 319.488ZM286.311 231.036C295.318 227.861 306.871 224.823 317.336 223.943C319.786 223.738 328.112 224.894 329.112 223.855C330.458 222.458 328.699 215.954 328.59 214.373C328.303 210.332 328.428 207.959 328.065 204.891C311.187 204.787 294.327 206.748 277.5 213.138C262.138 222.502 250.269 234.603 240.027 247.979C242.239 250.143 244.198 251.496 247.228 254.194C248.415 255.247 252.5 260.614 254.431 260.407C255.867 260.253 260.043 252.979 261.704 251.172C268.804 243.454 278.282 236.199 286.31 231.036L286.311 231.036ZM502.787 382.372C503.115 380.611 503.474 378.857 503.861 377.109C497.656 375.797 491.333 375.034 485.089 373.908C484.743 375.357 484.413 376.81 484.102 378.266C483.77 379.718 483.457 381.174 483.16 382.634C489.3 384.23 495.36 386.188 501.543 387.598C501.928 385.85 502.342 384.108 502.787 382.372ZM415.411 493.32C416.996 492.478 418.596 491.663 420.207 490.875C417.368 485.221 414.024 479.815 411.013 474.244C409.661 474.878 408.317 475.527 406.981 476.192C405.636 476.839 404.299 477.502 402.969 478.181C405.546 483.964 407.789 489.909 410.538 495.608C412.149 494.819 413.773 494.055 415.411 493.32ZM273.944 494.375C275.593 495.086 277.228 495.825 278.851 496.59C281.514 490.851 283.667 484.873 286.157 479.052C284.818 478.394 283.471 477.75 282.116 477.124C280.77 476.478 279.417 475.849 278.056 475.236C275.128 480.851 271.866 486.306 269.111 492.002C270.735 492.766 272.346 493.556 273.943 494.375L273.944 494.375ZM184.913 384.742C185.384 386.471 185.824 388.207 186.236 389.949C192.397 388.447 198.426 386.399 204.542 384.71C204.224 383.255 203.888 381.804 203.535 380.358C203.202 378.906 202.851 377.458 202.483 376.015C196.256 377.234 189.945 378.091 183.761 379.496C184.174 381.238 184.559 382.986 184.913 384.742ZM215.361 246.978C214.3 248.423 213.213 249.848 212.104 251.255C217.123 255.121 222.488 258.545 227.624 262.261C228.567 261.106 229.495 259.939 230.409 258.762C231.34 257.597 232.256 256.421 233.158 255.234C228.321 251.139 223.713 246.754 218.756 242.808C217.648 244.216 216.517 245.607 215.361 246.978ZM342.358 184.818C340.563 184.892 338.768 184.933 336.973 184.946C337.071 191.269 337.732 197.587 338.021 203.908C339.514 203.922 341.008 203.919 342.501 203.897C343.994 203.897 345.487 203.877 346.981 203.841C347.175 197.516 347.741 191.19 347.744 184.865C345.949 184.879 344.153 184.865 342.358 184.818ZM470.274 245.076C469.098 243.723 467.946 242.35 466.817 240.958C461.92 244.977 457.379 249.431 452.603 253.598C453.523 254.771 454.457 255.933 455.405 257.084C456.336 258.248 457.282 259.4 458.241 260.541C463.322 256.749 468.635 253.246 473.596 249.305C472.465 247.914 471.357 246.505 470.274 245.076ZM367.953 327.7C360.75 330.388 354.12 333.816 348.333 337.342C347.388 330.645 345.833 323.361 343.34 316.106C340.957 323.397 339.511 330.704 338.667 337.414C332.827 333.975 326.147 330.646 318.905 328.066C323.135 334.47 327.962 340.153 332.698 344.995C326.36 347.403 319.584 350.535 313.046 354.573C320.705 355.268 328.17 355.048 334.919 354.375C332.856 360.818 331.088 368.053 330.177 375.668C335.496 370.13 339.978 364.173 343.658 358.492C347.423 364.117 351.994 370.007 357.396 375.465C356.371 367.865 354.495 360.656 352.335 354.245C359.093 354.817 366.561 354.926 374.208 354.117C367.61 350.178 360.789 347.146 354.415 344.833C359.078 339.921 363.819 334.167 367.953 327.7ZM376.466 277.957C379.614 279.797 382.916 281.48 386.358 282.934C403.46 279.628 418.626 270.846 429.027 263.334C424.068 259.394 421.172 253.79 416.283 249.792C408.797 253.854 399.352 258.706 388.65 261.185C387.483 260.641 386.341 260.068 385.222 259.472C384.05 258.989 382.88 258.472 381.718 257.92C376.842 248.102 374.601 237.745 372.993 229.4C366.791 228.173 360.61 229.502 354.409 228.184C355.196 240.966 358.026 258.226 366.327 273.497C369.639 275.224 373.04 276.698 376.465 277.955L376.466 277.957ZM418.518 329.739C419.039 333.341 419.778 336.965 420.783 340.555C434.039 351.827 450.38 358.176 462.755 361.601C462.752 355.279 465.341 349.527 465.426 343.222C457.575 339.919 447.881 335.58 439.265 328.782C438.964 327.533 438.701 326.286 438.47 325.042C438.119 323.827 437.795 322.593 437.503 321.342C442.16 311.419 448.883 303.215 454.424 296.758C451.519 291.157 446.624 287.168 443.791 281.511C434.26 290.095 422.492 303.062 415.693 319.056C416.404 322.716 417.368 326.286 418.519 329.74L418.518 329.739ZM404.137 394.809C401.637 397.461 399.257 400.296 397.069 403.318C396.496 420.68 401.708 437.379 406.738 449.163C411.693 445.218 417.816 443.65 422.813 439.786C420.508 431.605 417.866 421.343 417.823 410.387C418.615 409.374 419.429 408.391 420.26 407.435C420.994 406.404 421.759 405.382 422.558 404.375C433.242 401.819 443.866 401.945 452.383 402.238C454.963 396.482 455.039 390.178 457.707 384.442C445.034 382.364 427.53 381.274 410.75 385.945C408.324 388.781 406.126 391.759 404.135 394.809L404.137 394.809ZM344.153 424.168C340.516 423.873 336.809 423.785 333.075 423.963C319.106 434.342 309.262 448.816 303.159 460.084C309.342 461.488 314.389 465.285 320.534 466.771C325.511 459.873 331.91 451.415 340.474 444.551C341.761 444.537 343.04 444.558 344.307 444.611C345.574 444.539 346.852 444.499 348.14 444.494C356.805 451.229 363.33 459.591 368.41 466.414C374.532 464.836 379.522 460.965 385.682 459.469C379.411 448.293 369.351 433.967 355.228 423.798C351.492 423.675 347.786 423.818 344.153 424.168ZM283.733 395.707C281.697 392.687 279.455 389.742 276.987 386.942C260.139 382.523 242.653 383.873 230.013 386.141C232.767 391.836 232.937 398.138 235.603 403.855C244.115 403.435 254.736 403.15 265.457 405.546C266.271 406.542 267.051 407.552 267.8 408.573C268.646 409.515 269.475 410.487 270.281 411.487C270.403 422.443 267.915 432.743 265.733 440.958C270.787 444.747 276.934 446.224 281.948 450.094C286.8 438.236 291.76 421.462 290.927 404.111C288.694 401.122 286.271 398.322 283.732 395.708L283.733 395.707ZM268.377 330.86C269.476 327.389 270.386 323.805 271.043 320.135C264.004 304.245 252.043 291.454 242.385 283.014C239.636 288.712 234.801 292.774 231.981 298.417C237.617 304.79 244.463 312.894 249.269 322.746C248.996 324.001 248.69 325.239 248.357 326.46C248.145 327.707 247.9 328.958 247.619 330.211C239.105 337.137 229.478 341.62 221.677 345.04C221.857 351.343 224.531 357.055 224.623 363.377C236.945 359.767 253.19 353.176 266.275 341.708C267.226 338.103 267.911 334.469 268.377 330.86ZM309.647 278.457C313.053 277.15 316.431 275.625 319.718 273.849C327.788 258.454 330.359 241.154 330.954 228.36C324.773 229.77 318.574 228.533 312.391 229.853C310.909 238.221 308.823 248.611 304.095 258.5C302.941 259.07 301.78 259.604 300.615 260.105C299.505 260.717 298.371 261.306 297.213 261.868C286.475 259.549 276.958 254.838 269.412 250.889C264.583 254.959 261.771 260.606 256.872 264.619C267.385 271.975 282.682 280.53 299.831 283.581C303.251 282.075 306.527 280.343 309.648 278.456L309.647 278.457ZM451.619 260.141C448.838 257.521 446.218 254.947 446.162 253.571C431.479 263.877 419.177 277.113 409.78 293.926C428.226 288.256 443.767 279.009 456.93 266.83C455.592 266.489 453.613 263.399 451.62 260.141L451.619 260.141ZM479.344 377.224C479.664 373.421 480.049 369.775 481.093 368.873C463.858 363.851 445.81 362.513 426.77 365.669C442.716 376.515 459.656 382.866 477.41 385.534C476.843 384.278 478.031 380.808 479.343 377.224L479.344 377.224ZM404.831 471.84C408.012 469.719 411.11 467.745 412.468 467.997C405.66 451.429 395.456 436.524 381.11 423.647C382.549 442.841 388.131 460.008 397.11 475.514C397.741 474.288 401.202 473.052 404.831 471.84V471.84ZM284.192 472.74C287.838 473.898 291.318 475.083 291.967 476.298C300.712 460.66 306.036 443.412 307.187 424.198C293.035 437.286 283.057 452.342 276.497 469.008C277.851 468.736 280.979 470.664 284.192 472.737V472.74ZM208.268 379.246C209.633 382.81 210.874 386.262 210.326 387.526C228.039 384.594 244.882 377.991 260.663 366.909C241.577 364.036 223.551 365.644 206.395 370.922C207.453 371.808 207.891 375.449 208.269 379.246L208.268 379.246ZM234.233 261.761C232.29 265.048 230.357 268.168 229.024 268.528C242.368 280.509 258.045 289.524 276.573 294.918C266.926 278.247 254.426 265.196 239.59 255.111C239.555 256.488 236.974 259.1 234.232 261.761H234.233ZM342.534 208.756C338.745 209.29 335.095 209.728 333.981 208.914C332.906 226.787 335.614 244.63 342.937 262.439C349.993 244.523 352.432 226.641 351.09 208.784C349.988 209.615 346.331 209.232 342.535 208.754L342.534 208.756Z" fill="url(#paint0_radial_1223_7231)"/>
</g>
<defs>
<radialGradient id="paint0_radial_1223_7231" cx="0" cy="0" r="1" gradientUnits="userSpaceOnUse" gradientTransform="translate(344 335) rotate(90) scale(335 344)">
<stop stop-color="white"/>
<stop offset="1" stop-color="#717171" stop-opacity="0.35"/>
</radialGradient>
</defs>
</svg>
